<?xml version="1.0" encoding="UTF-8" standalone="no"?>
<svg
   version="1.1"
   style="display:block"
   viewBox="0 0 1710 1710"
   width="855"
   height="855"
   id="svg120"
   sodipodi:docname="logo.svg"
   inkscape:version="1.4 (e7c3feb, 2024-10-09)"
   xmlns:inkscape="http://www.inkscape.org/namespaces/inkscape"
   xmlns:sodipodi="http://sodipodi.sourceforge.net/DTD/sodipodi-0.dtd"
   xmlns="http://www.w3.org/2000/svg"
   xmlns:svg="http://www.w3.org/2000/svg">
  <sodipodi:namedview
     id="namedview120"
     pagecolor="#ffffff"
     bordercolor="#000000"
     borderopacity="0.25"
     inkscape:showpageshadow="2"
     inkscape:pageopacity="0.0"
     inkscape:pagecheckerboard="true"
     inkscape:deskcolor="#d1d1d1"
     inkscape:zoom="0.7890625"
     inkscape:cx="232.55446"
     inkscape:cy="463.84158"
     inkscape:window-width="1920"
     inkscape:window-height="1010"
     inkscape:window-x="0"
     inkscape:window-y="0"
     inkscape:window-maximized="1"
     inkscape:current-layer="svg120" />
  <defs
     id="defs4">
    <linearGradient
       id="Gradient1"
       gradientUnits="userSpaceOnUse"
       x1="1619.5699"
       y1="448.22"
       x2="1626.02"
       y2="420.944"
       gradientTransform="translate(-136.21257,-291.758)">
      <stop
         class="stop0"
         offset="0"
         stop-opacity="1"
         stop-color="rgb(68,66,75)"
         id="stop1" />
      <stop
         class="stop1"
         offset="1"
         stop-opacity="1"
         stop-color="rgb(87,88,103)"
         id="stop2" />
    </linearGradient>
    <linearGradient
       id="Gradient2"
       gradientUnits="userSpaceOnUse"
       x1="1159.92"
       y1="1393.76"
       x2="1160.71"
       y2="1419.26"
       gradientTransform="translate(-136.21257,-291.758)">
      <stop
         class="stop0"
         offset="0"
         stop-opacity="1"
         stop-color="rgb(45,45,55)"
         id="stop3" />
      <stop
         class="stop1"
         offset="1"
         stop-opacity="1"
         stop-color="rgb(78,76,86)"
         id="stop4" />
    </linearGradient>
  </defs>
  <path
     fill="#494853"
     d="m 1492.8074,1168.142 c 1.37,0.01 3.13,-0.08 4.49,0.22 3.23,0.7 5.85,2.51 7.7,5.22 1.97,2.88 2.7,5.94 1.98,9.39 -0.9,4.31 -3.2,6.09 -6.68,8.37 -0.5,-0.01 -0.99,-0.01 -1.49,-0.02 -4.21,-0.15 -8.15,-1.4 -10.89,-4.77 a 10.4526,10.4526 0 0 1 -2.27,-7.74 c 0.52,-5 3.37,-7.74 7.16,-10.67 z"
     id="path5" />
  <path
     fill="#494853"
     d="m 986.57743,297.848 c 4.45,2.905 8.53,11.065 12.64,15.303 -0.31,0.358 -0.62,0.721 -0.93,1.076 -3.37,3.811 -4.03,7.447 -6.09,11.88 -1.12,2.416 -1.52,3.743 -4.15,4.663 l -2.97,-2.243 c -5.8,-5.316 -11.66,-10.019 -18.22,-14.367 7.56,-4.472 13.43,-10.253 19.72,-16.312 z"
     id="path7" />
  <path
     fill="#494853"
     d="m 1192.3174,117.424 c 9.74,-12.235 26.37,-21.141998 40.15,-27.976998 9.42,-4.677 25.53,-12.986 36.13,-8.934 4.3,1.642 6.16,4.555 8.08,8.539 l -3.9,2.094 c -4.03,-3.328 -7.52,-5.922 -12.98,-5.586 -17.6,1.083 -54.1,23.550998 -65.59,36.776998 z"
     id="path8" />
  <path
     fill="#494853"
     d="m 774.06743,702.073 1.428,0.068 c 1.715,3.017 0.475,23.101 0.853,28.211 -4.707,0.16 -10.57,2.34 -15.062,1.56 -3.596,-0.62 -4.156,-2.42 -6.155,-5.15 -1.853,-3.78 -6.181,-7.79 -8.542,-11.61 9.308,-3.94 18.309,-8.795 27.478,-13.079 z"
     id="path9" />
  <path
     fill="#494853"
     d="m 312.70743,784.222 c 5.029,5.42 4.942,15.16 9.25,21.69 -4.775,3.54 -10.18,8.86 -15.616,10.95 l -2.475,-1.46 c -5.412,-4.01 -10.661,-7.92 -15.445,-12.68 7.602,-7.41 15.048,-13.24 24.286,-18.5 z"
     id="path10" />
  <path
     fill="url(#Gradient1)"
     d="m 1444.9674,122.003 2.93,-1.317 -0.02,-0.833 c 0.23,0.327 0.45,0.656 0.68,0.979 0.99,1.405 0.56,0.875 1.83,2.101 8.91,10.16 48.16,34.427 61.44,34.829 5.63,0.17 12.22,-2.632 17.18,-5.104 0.3,0.337 0.61,0.677 0.92,1.01 1.41,1.512 0.84,0.946 2.58,2.354 l -0.59,0.771 c -5.81,3.224 -12.96,6.783 -19.56,7.649 -12.17,1.595 -51.72,-23.241 -61.44,-31.517 -3.8,-3.235 -5.59,-5.944 -5.95,-10.922 z"
     id="path11"
     style="fill:url(#Gradient1)" />
  <path
     fill="#494853"
     d="m 1194.7874,422.111 c 6.39,7.738 14.11,14.219 21.6,20.85 -6.11,8.035 -14.59,15.147 -21.79,22.26 -3.52,-1.171 -17.53,-18.784 -20.97,-22.612 a 2086.29,2086.29 0 0 1 21.16,-20.498 z"
     id="path12" />
  <path
     fill="#494853"
     d="m 920.88743,658.87 c 2.74,1.251 16.58,23.906 19.98,28.711 -4.93,5.263 -10.14,12.394 -16.17,16.266 l -2.52,-0.787 c -7.61,-7.123 -15.16,-13.917 -23.9,-19.666 6.5,-8.931 14.76,-16.781 22.61,-24.524 z"
     id="path13" />
  <path
     fill="#494853"
     d="m 646.89643,751.942 c 5.899,11.99 12.758,19.36 22.918,27.81 -12.137,9.92 -20.145,19.07 -27.997,32.64 -3.477,-0.59 -12.009,-18.02 -14.99,-21.75 -2.002,-2.51 -4.521,-4.65 -6.928,-6.75 9.758,-10.16 18.663,-20.59 26.997,-31.95 z"
     id="path14" />
  <path
     fill="#fefefe"
     d="m 1194.2074,122.337 c 11.49,-13.226 47.99,-35.693998 65.59,-36.776998 5.46,-0.336 8.95,2.258 12.98,5.586 l 3.9,-2.094 1.8,3.194 c 5.2,1.316 11.19,-1.132 16.52,-1.53 l 3.84,3.475 c 7.6,-1.171 15,-2.842 22.05,-5.953 3.15,1.429 4.28,2.963 6.19,5.8 l -1.88,6.580998 c -3.02,0.387 -6.08,0.343 -8.42,2.51 -0.92,2.319 -0.78,3.342 -0.2,5.747 l -1.49,-0.678 -1.99,-3.785 -0.79,1.084 c 0.32,1.438 0.61,2.359 1.29,3.661 0.89,1.695 0.78,3.162 0.82,5.024 -2.31,-3.174 -3.14,-6.305 -4.2,-10.055 -8.85,0.989 -19.83,0.045 -28.14,3.122 l -4.71,2.292 c -3.12,-1.57 -5.98,-2.644 -9.38,-3.464 l -0.11,-0.393 c -0.56,-4.089 -0.45,-9.520998 -2.92,-12.917998 -3.43,-1.737 -6.36,-1.133 -9.85,0.001 -18.96,6.153 -33.14,19.706998 -49.9,29.490998 -1.3,1.155 -2.49,2.421 -3.7,3.666 -0.58,2.361 -1.05,5.024 -2.18,7.184 -1.24,2.347 -2.13,2.253 -4.53,3.073 -1.78,-0.585 -1.85,-0.141 -2.49,-1.585 -1.8,-4.069 0.3,-8.5 1.9,-12.259 z"
     id="path15" />
  <path
     fill="#535056"
     d="m 1276.6774,89.052002 1.8,3.194 c 5.2,1.316 11.19,-1.132 16.52,-1.53 l 3.84,3.475 c -6.88,0.832 -14.21,3.375 -20.98,3.516 -2.6,0.054 -3.94,-0.154 -5.78,-1.976 l 0.7,-4.585 z"
     id="path16" />
  <path
     fill="#494853"
     d="m 1327.0774,94.038002 -1.88,6.580998 c -3.02,0.387 -6.08,0.343 -8.42,2.51 -0.92,2.319 -0.78,3.342 -0.2,5.747 l -1.49,-0.678 -1.99,-3.785 -0.79,1.084 c 0.32,1.438 0.61,2.359 1.29,3.661 0.89,1.695 0.78,3.162 0.82,5.024 -2.31,-3.174 -3.14,-6.305 -4.2,-10.055 -8.85,0.989 -19.83,0.045 -28.14,3.122 l -4.71,2.292 c -3.12,-1.57 -5.98,-2.644 -9.38,-3.464 l -0.11,-0.393 c 10.92,-8.401998 50.56,-3.443 59.2,-11.645998 z"
     id="path17" />
  <path
     fill="#494853"
     d="m 1516.9374,123.55 c 5.53,3.283 10.34,8.224 11.78,14.754 0.09,0.407 0.1,0.827 0.15,1.24 -1.38,1.694 -0.69,1.547 -2.56,1.703 -2.46,0.206 -4.75,-0.232 -7.17,-0.626 l -0.7,0.695 c 3.42,3.729 7.61,1.818 11.25,4.7 3.15,2.491 27.1,29.162 28.11,31.47 l -0.53,2.6 c 0.53,1.524 1.03,2.072 0.6,3.661 -2.13,7.798 -0.47,11.31 3.48,18.133 4.03,6.966 20.73,34.216 26.73,37.008 5.39,2.615 7.93,4.344 10.21,9.951 l -0.51,1.541 0.54,1.254 c 0.62,1.394 1.31,2.7 2.04,4.033 l -0.63,2.236 c -3.5,-0.384 -6.64,-0.843 -9.78,-2.531 -14.26,-7.649 -41.87,-45.172 -46.34,-60.269 -2.46,-8.291 -0.41,-14.766 3.54,-22.143 l -15.23,-16.167 0.59,-0.771 c -1.74,-1.408 -1.17,-0.842 -2.58,-2.354 -0.31,-0.333 -0.62,-0.673 -0.92,-1.01 -3.7,-2.81 -6.04,-6.551 -10.24,-8.787 -3.15,-0.035 -3.78,0.511 -6.45,2.041 l -1.49,-5.117 c 2.04,-2.476 6.67,-3.452 9.39,-5.647 0.35,-2.731 -0.01,-2.719 -1.61,-5.02 l 1.46,-1.175 c -0.94,-1.89 -2,-3.627 -3.13,-5.403 z"
     id="path18" />
  <path
     fill="#fefefe"
     d="m 1548.3774,189.652 c 0.45,-2.325 0.78,-4.848 1.48,-7.103 0.8,-2.568 1.09,-2.779 3.31,-3.931 l 4.1,1.468 c 0.53,1.524 1.03,2.072 0.6,3.661 -2.13,7.798 -0.47,11.31 3.48,18.133 4.03,6.966 20.73,34.216 26.73,37.008 5.39,2.615 7.93,4.344 10.21,9.951 l -0.51,1.541 c -2.97,-0.168 -6.42,-0.819 -9.02,-2.347 -9.62,-5.646 -37.23,-47.018 -40.38,-58.381 z"
     id="path19" />
  <path
     fill="#494853"
     d="m 812.61143,519.712 0.914,0.964 c -2.352,8.811 -13.334,21.647 -20.392,27.219 -15.487,12.224 -35.284,9.19 -53.438,6.981 -1.52,0.008 -0.673,0.167 -2.426,-0.89 0.338,-2.635 1.615,-4.27 3.247,-6.281 18.896,-23.299 44.298,-25.574 72.095,-27.993 z"
     id="path20" />
  <path
     fill="#494853"
     d="m 440.84943,889.732 c 8.721,7.53 18.806,13.36 27.049,21.5 16.336,16.12 13.664,41.24 13.716,62.1 l -1.424,0.23 c -12.514,-12.57 -29.23,-26.31 -37.872,-41.8 -7.613,-13.65 -5.533,-27.74 -1.469,-42.03 z"
     id="path21" />
  <path
     fill="#494853"
     d="m 1444.2374,95.850002 c 3.77,-5.267 6.44,-8.457 13.08,-9.51 19.15,-3.039 56.74,18.249998 71.72,30.013998 6.28,4.933 11.37,11.622 12.08,19.858 0.29,3.37 0.03,6.853 -0.24,10.219 l -4.78,-0.077 c 6.7,7.24 13.32,14.631 20.29,21.622 4.04,4.062 11.25,8.832 14.09,13.478 -5.29,-0.161 -8.33,-0.808 -12.68,-3.968 -1.01,-2.308 -24.96,-28.979 -28.11,-31.47 -3.64,-2.882 -7.83,-0.971 -11.25,-4.7 l 0.7,-0.695 c 2.42,0.394 4.71,0.832 7.17,0.626 1.87,-0.156 1.18,-0.009 2.56,-1.703 -0.05,-0.413 -0.06,-0.833 -0.15,-1.24 -1.44,-6.53 -6.25,-11.471 -11.78,-14.754 1.13,1.776 2.19,3.513 3.13,5.403 l -1.46,1.175 c -13.99,-8.488 -28.33,-18.393 -43.76,-23.992 -3.63,-1.319 -7.82,-2.704 -11.48,-1.05 l -2.68,3.182 c -0.3,-0.157 -0.6,-0.319 -0.9,-0.472 -0.48,-0.244 -0.97,-0.473 -1.45,-0.717 -4.68,-2.358 -11,-2.3 -14.66,-5.591 z"
     id="path22" />
  <path
     fill="#fefefe"
     d="m 1446.8174,106.639 c 1.99,-5.4 3.71,-12.526998 9.69,-14.843998 9.86,-3.818 27.74,5.261 36.54,9.784998 11.23,5.772 37.54,18.219 41.14,30.253 1.12,3.787 0.6,7.164 -0.34,10.904 0.68,1.579 1.03,2.35 2.25,3.617 6.7,7.24 13.32,14.631 20.29,21.622 4.04,4.062 11.25,8.832 14.09,13.478 -5.29,-0.161 -8.33,-0.808 -12.68,-3.968 -1.01,-2.308 -24.96,-28.979 -28.11,-31.47 -3.64,-2.882 -7.83,-0.971 -11.25,-4.7 l 0.7,-0.695 c 2.42,0.394 4.71,0.832 7.17,0.626 1.87,-0.156 1.18,-0.009 2.56,-1.703 -0.05,-0.413 -0.06,-0.833 -0.15,-1.24 -1.44,-6.53 -6.25,-11.471 -11.78,-14.754 -10.39,-8.357 -44.97,-28.193998 -57.93,-25.449998 -4.59,0.972 -8.36,5.919998 -12.19,8.538998 z"
     id="path23" />
  <path
     fill="#494853"
     d="m 472.71843,491.845 c 0.937,0.675 1.339,0.929 2.262,1.818 5.064,4.877 9.388,10.73 14.372,15.752 9.705,9.779 21.396,19.025 29.295,30.36 14.058,20.176 24.862,67.575 26.355,91.899 -6.902,-8.635 -12.338,-18.3 -19.697,-26.639 -8.855,-10.033 -21.145,-18.746 -28.217,-30.032 -11.189,-17.856 -19.287,-61.372 -24.37,-83.158 z"
     id="path25" />
  <path
     fill="#494853"
     d="m 1678.9974,894.122 0.61,0.16 0.57,1.18 c -7.9,24.3 -17.95,48.79 -40.82,62.48 -13.5908,8.11234 -36.6173,12.1527 -59.29,33.5 l -0.68,0.32 c -0.89,-3.17 0.81,-7.87 1.9,-10.98 19.4258,-60.64648 48.1514,-63.44378 96.23,-85.93 z"
     id="path26"
     sodipodi:nodetypes="ccccccccc" />
  <path
     fill="#494853"
     d="m 1205.2074,122.258 c 16.76,-9.784 30.94,-23.337998 49.9,-29.490998 3.49,-1.134 6.42,-1.738 9.85,-0.001 2.47,3.397 2.36,8.828998 2.92,12.917998 l 0.11,0.393 c 3.4,0.82 6.26,1.894 9.38,3.464 l 4.71,-2.292 c 0.69,4.389 1.69,8.421 -1.01,12.344 -7.57,10.969 -56.57,36.37 -70.65,40.05 -4.19,-1.251 -8.51,-2.348 -12.52,-4.101 -5.15,6.539 -9.8,13.23 -14.3,20.23 -1.01,1.563 -2.14,2.222 -3.63,3.298 -1.99,0.046 -1.23,0.394 -2.44,-0.656 l 0.73,-4.346 c 4.65,-9.841 18.99,-22.015 21.73,-30.908 l -2.02,-2.878 c -2.32,2.011 -4.71,3.969 -6.88,6.147 l -2.13,-1.783 c 1.25,-3.82 -2.28,-10.418 -2.63,-14.636 -0.42,-5.128 2.95,-8.895 5.99,-12.586 l 1.89,4.913 c -1.6,3.759 -3.7,8.19 -1.9,12.259 0.64,1.444 0.71,1 2.49,1.585 2.4,-0.82 3.29,-0.726 4.53,-3.073 1.13,-2.16 1.6,-4.823 2.18,-7.184 1.21,-1.245 2.4,-2.511 3.7,-3.666 z"
     id="path27" />
  <path
     fill="#fefefe"
     d="m 1267.9874,106.077 c 3.4,0.82 6.26,1.894 9.38,3.464 -0.21,3.162 -0.26,5.272 -2.68,7.619 -7.32,7.119 -47.46,30.127 -57.83,33.71 -2.88,0.998 -6.59,1.14 -9.6,0.798 -2.87,-0.327 -4.38,-0.721 -6.41,-2.69 1.51,-3.308 4.89,-3.42 6.17,-6.401 -1.39,-0.529 -2.55,-0.817 -4,-1.128 -1.89,-0.406 -2.91,-1.023 -4.48,-2.082 l 4.39,-3.277 c 3.34,-0.42 4.71,0.692 7.72,2.095 -0.77,2.544 -1.71,4.86 -1.26,7.551 0.98,0.264 1.09,0.368 2.26,0.256 2.28,-0.219 51.74,-27.603 53.66,-29.617 2.91,-3.056 2.64,-6.365 2.68,-10.298 z"
     id="path28" />
  <path
     fill="#494853"
     d="m 1205.2074,122.258 c 16.76,-9.784 30.94,-23.337998 49.9,-29.490998 3.49,-1.134 6.42,-1.738 9.85,-0.001 2.47,3.397 2.36,8.828998 2.92,12.917998 l 0.11,0.393 c -0.04,3.933 0.23,7.242 -2.68,10.298 -1.92,2.014 -51.38,29.398 -53.66,29.617 -1.17,0.112 -1.28,0.008 -2.26,-0.256 -0.45,-2.691 0.49,-5.007 1.26,-7.551 l 3.19,-0.112 c -0.93,-3.586 -1.89,-6.025 -4.84,-8.509 -1.71,-1.433 -1.04,-0.205 -1.56,-2.727 -0.52,-1.846 -1.23,-2.966 -2.23,-4.579 z"
     id="path29" />
  <path
     fill="#fefefe"
     d="m 1207.4374,126.837 c 8.75,-7.747 39.51,-29.007998 50.06,-28.695998 0.97,0.028 1.12,0.02 1.61,0.806 2.06,3.283998 0.86,10.728998 0.57,14.626998 -14.89,7.527 -29.96,14.839 -44.11,23.724 -1.09,0.686 -0.6,0.471 -1.73,0.775 -0.93,-3.586 -1.89,-6.025 -4.84,-8.509 -1.71,-1.433 -1.04,-0.205 -1.56,-2.727 z"
     id="path30" />
  <path
     fill="#494853"
     d="m 1059.7174,396.695 c 4.64,9.284 5.2,19.705 5.52,29.899 1.72,55.072 -51.94,82.648 -84.94997,117.958 l -0.87,0.827 -1.31,-0.064 c -1.76,-10.192 0.95,-25.784 2.58,-36.106 11.79,-74.342 59.65997,-61.058 79.02997,-112.514 z"
     id="path32" />
  <path
     fill="#494853"
     d="m 1197.9674,140.282 2.02,2.878 c -2.74,8.893 -17.08,21.067 -21.73,30.908 l -0.73,4.346 c 1.21,1.05 0.45,0.702 2.44,0.656 1.49,-1.076 2.62,-1.735 3.63,-3.298 6.27,14.048 13.56,58.031 8.45,72.236 a 12.8055,12.8055 0 0 1 -6.34,7.07 c -2.67,1.319 -6.51,1.805 -9.43,2.424 29.16,8.575 55.4,25.646 77.73,46.226 -24,-2.856 -52.32,-8.389 -71.04,-24.995 -7.03,-6.231 -10.59,-12.781 -19.94,-15.818 -9.07,-2.725 -18.54,-5.059 -23.3,-14.081 -8.72,-16.559 -5.3,-45.951 0.04,-63.193 9.24,-29.815 22.75,-13.299 28.54,-17.717 7.71,-5.891 12.25,-18.85 20.65,-23.278 l 2.13,1.783 c 2.17,-2.178 4.56,-4.136 6.88,-6.147 z"
     id="path33" />
  <path
     fill="#fefefe"
     d="m 1179.7874,179.906 1.07,0.606 c 4.5,9.171 6.09,40.189 6.43,51.375 0.17,5.738 -0.26,13.549 -4.95,17.681 -3.94,3.467 -9.68,4.183 -14.73,3.959 l -1.26,-2.305 c 1.44,-1.178 0.83,-0.914 2.51,-1.437 3.39,-1.052 8.37,-1.759 10.85,-4.466 4.97,-5.421 -0.41,-36.584 -1.73,-43.907 -0.83,-4.553 -2.91,-10.228 -2.91,-14.682 0,-2.986 2.81,-4.834 4.72,-6.824 z"
     id="path34" />
  <path
     fill="#fefefe"
     d="m 1165.5774,259.589 c -8.83,-4.097 -17.2,-7.215 -21.57,-16.628 -6.91,-14.894 -3.2,-43.953 2.73,-59.041 1.67,-4.234 3.36,-8.241 7.7,-10.19 2.28,0.314 4.23,0.351 6.24,1.566 -7.99,16.455 -11.78,17.861 -12.68,38.481 -0.49,11.105 -1.07,24.834 7.03,33.479 0.22,0.239 0.45,0.473 0.68,0.709 4.1,3.273 8.68,6.373 11.78,10.649 l -1.04,1.076 z"
     id="path35" />
  <path
     fill="#fefefe"
     d="m 1197.9674,140.282 2.02,2.878 c -2.74,8.893 -17.08,21.067 -21.73,30.908 -5.54,6.322 -11.51,12.067 -11.76,20.994 l 1.4,0.505 2.97,-3.014 c 2.68,3.373 4.52,40.031 3.96,46.147 -0.15,1.652 -0.33,2.335 -1.32,3.68 -3.01,2.096 -6.78,5.218 -10.68,3.947 -0.84,-0.275 -2.21,-1.143 -3,-1.617 l -1.07,0.898 c -6.63,-12.144 -6.75,-29.795 -4.22,-43.178 0.61,-3.251 1.67,-8.651 4.55,-10.641 0.99,1.379 1.81,2.575 3.18,3.621 1.23,0.938 1.73,0.471 3.17,0.259 -1.15,-2.078 -2.56,-4.458 -2.78,-6.86 -0.78,-8.594 22.23,-34.556 28.43,-42.38 2.17,-2.178 4.56,-4.136 6.88,-6.147 z"
     id="path36" />
  <path
     fill="#494853"
     d="m 1159.8274,244.71 c 1.76,-2.148 3.1,-3.325 5.45,-4.785 3.31,-0.521 5.42,0.958 8.23,2.455 -3.01,2.096 -6.78,5.218 -10.68,3.947 -0.84,-0.275 -2.21,-1.143 -3,-1.617 z"
     id="path37" />
  <path
     fill="#494853"
     d="m 1307.9374,89.026002 c 1.26,-4.361 2.5,-10.545 5.73,-13.9 7.83,-8.157 29.87,-7.995 40.64,-8.506 16.7,-0.792 43.47,-3.98 56.33,8.593 4.14,4.041 4.37,7.788 4.31,13.346 l 0.43,0.438 c 5.15,1.48 10.3,2.926 15.35,4.709 l 13.51,2.144 -0.56,5.637998 c 3.66,3.291 9.98,3.233 14.66,5.591 0.48,0.244 0.97,0.473 1.45,0.717 0.3,0.153 0.6,0.315 0.9,0.472 l 2.68,-3.182 c 3.66,-1.654 7.85,-0.269 11.48,1.05 15.43,5.599 29.77,15.504 43.76,23.992 1.6,2.301 1.96,2.289 1.61,5.02 -2.72,2.195 -7.35,3.171 -9.39,5.647 l 1.49,5.117 c 2.67,-1.53 3.3,-2.076 6.45,-2.041 4.2,2.236 6.54,5.977 10.24,8.787 -4.96,2.472 -11.55,5.274 -17.18,5.104 -13.28,-0.402 -52.53,-24.669 -61.44,-34.829 -1.27,-1.226 -0.84,-0.696 -1.83,-2.101 -0.23,-0.323 -0.45,-0.652 -0.68,-0.979 l 0.02,0.833 -2.93,1.317 c -0.2,-3.3 0.15,-6.016 -1.62,-8.846 -8.89,-3.678 -19.4,-6.86 -28.88,-8.441 -0.19,0.373 -0.36,0.748 -0.55,1.12 -0.26,0.51 -0.53,1.013 -0.78,1.524 -0.79,1.584 -0.73,1.759 -1.86,3.233 -4.38,5.725 -14.41,8.042 -21.18,8.904 -15.93,2.03 -63.43,4.218 -75.68,-5.315 -0.04,-1.862 0.07,-3.329 -0.82,-5.024 -0.68,-1.302 -0.97,-2.223 -1.29,-3.661 l 0.79,-1.084 1.99,3.785 1.49,0.678 c -0.58,-2.405 -0.72,-3.428 0.2,-5.747 2.34,-2.167 5.4,-2.123 8.42,-2.51 l 1.88,-6.580998 c -1.91,-2.837 -3.04,-4.371 -6.19,-5.8 -7.05,3.111 -14.45,4.782 -22.05,5.953 l -3.84,-3.475 c 3.95,-1.091 8.83,-1.174 12.94,-1.69 z"
     id="path38" />
  <path
     fill="#fefefe"
     d="m 1325.1974,100.619 0.65,1.091 -2.31,0.849 0.41,1.721 c 9.17,4.034 58.37,5.224 67.49,1.702 4.48,-1.73 8.52,-4.799 13.39,-5.181 2.01,1.716 2.19,1.595 2.54,4.172 -2.88,4.839 -11.17,6.751 -16.4,8.025 -15.85,3.86 -59.99,2.471 -74.39,-4.122 -0.58,-2.405 -0.72,-3.428 0.2,-5.747 2.34,-2.167 5.4,-2.123 8.42,-2.51 z"
     id="path39" />
  <path
     fill="#fefefe"
     d="m 1379.6874,84.701002 c 5.26,0.122 10.54,0.353 15.8,0.198 -5.97,5.59 -8.44,9.47 -9.02,17.712998 a 884.333,884.333 0 0 1 -54.62,-0.373 c 0.24,-3.126998 1.19,-7.936998 0.32,-10.982998 -0.76,-2.688 -2.86,-3.18 -5.08,-4.314 16.54,-3.49 35.7,-2.45 52.6,-2.241 z"
     id="path40" />
  <path
     fill="#fefefe"
     d="m 1319.7274,88.068002 c -1.47,0.179 -2.19,0.111 -3.6,-0.149 -0.42,-0.691 -1.04,-1.639 -1.28,-2.4 -0.59,-1.956 -0.61,-3.619 0.84,-5.166 8.26,-8.851 52.17,-8.519 65.52,-8.168 9.85,0.259 20.37,0.848 27.5,8.423 0.6,3.27 0.59,4.39 2.78,6.986 l 3.46,0.965 0.43,0.438 c 5.15,1.48 10.3,2.926 15.35,4.709 l 13.51,2.144 -0.56,5.637998 c 3.66,3.291 9.98,3.233 14.66,5.591 0.48,0.244 0.97,0.473 1.45,0.717 0.3,0.153 0.6,0.315 0.9,0.472 l 2.68,-3.182 c 3.66,-1.654 7.85,-0.269 11.48,1.05 15.43,5.599 29.77,15.504 43.76,23.992 1.6,2.301 1.96,2.289 1.61,5.02 -2.72,2.195 -7.35,3.171 -9.39,5.647 l 1.49,5.117 c 2.67,-1.53 3.3,-2.076 6.45,-2.041 4.2,2.236 6.54,5.977 10.24,8.787 -4.96,2.472 -11.55,5.274 -17.18,5.104 -13.28,-0.402 -52.53,-24.669 -61.44,-34.829 -0.11,-3.634 0.59,-10.33 -1.17,-13.364 -12.37,-4.957 -37.57,-13.637998 -50.48,-11.690998 -1.96,0.295 -1.85,0.299 -3.9,-0.473 0.45,-5.553 6.73,-7.799 6.33,-14.321 -4.07,-3.896 -12.43,-2.829 -17.76,-2.849 l 5.23,1.508 c -0.35,0.035 -0.7,0.066 -1.05,0.106 -3.39,0.385 -5.1,0.904 -7.9,2.852 -16.9,-0.209 -36.06,-1.249 -52.6,2.241 -0.18,-0.114 -0.33,-0.267 -0.52,-0.344 -2.1,-0.845 -3.18,-0.809 -4.69,-2.654 -0.7,1.363 -1.33,2.835 -2.15,4.124 z"
     id="path41" />
  <path
     fill="#494853"
     d="m 1408.7074,80.608002 c 0.6,3.27 0.59,4.39 2.78,6.986 l 3.46,0.965 0.43,0.438 c -1.13,1.668 -1.76,2.536 -1.79,4.584 -2.97,-0.787 -4.13,-0.876 -6.38,-3.052 -0.83,-3.531 0.47,-6.566 1.5,-9.921 z"
     id="path42" />
  <path
     fill="#535056"
     d="m 1415.3774,88.997002 c 5.15,1.48 10.3,2.926 15.35,4.709 l 13.51,2.144 -0.56,5.637998 c -3.59,-1.905998 -8.51,-2.727998 -12.45,-3.859998 a 524.866,524.866 0 0 1 -17.64,-4.047 c 0.03,-2.048 0.66,-2.916 1.79,-4.584 z"
     id="path43" />
  <path
     fill="#393840"
     d="m 1321.8774,83.944002 c 11.3,-6.687 47.22,-4.819 61.53,-3.709 l 5.23,1.508 c -0.35,0.035 -0.7,0.066 -1.05,0.106 -3.39,0.385 -5.1,0.904 -7.9,2.852 -16.9,-0.209 -36.06,-1.249 -52.6,2.241 -0.18,-0.114 -0.33,-0.267 -0.52,-0.344 -2.1,-0.845 -3.18,-0.809 -4.69,-2.654 z"
     id="path44" />
  <path
     fill="#494853"
     d="m 1463.3674,105.086 c 1.9,2.275 3.95,3.816 3.76,7.06 -0.14,2.474 -1.3,5.606 -1.96,8.025 6.86,4.826 34.61,23.313 42.11,21.703 1.33,-0.283 2.29,-0.649 3.55,-1.079 l 1.49,5.117 c 2.43,1.024 4.36,1.924 6.5,3.508 l -0.81,1.144 c -5.49,0.312 -12.13,-1.544 -17.14,-3.74 -10.94,-4.801 -45.34,-22.621 -49.33,-32.952 l 0.63,-1.235 a 659.995,659.995 0 0 1 7.28,2.312 l 1.43,-1.042 c 0.1,-1.58 0.19,-3.037 -0.02,-4.616 -0.05,-0.342 -0.11,-0.682 -0.17,-1.023 z"
     id="path45" />
  <path
     fill="#fefefe"
     d="m 1463.3674,105.086 c 3.66,-1.654 7.85,-0.269 11.48,1.05 15.43,5.599 29.77,15.504 43.76,23.992 1.6,2.301 1.96,2.289 1.61,5.02 -2.72,2.195 -7.35,3.171 -9.39,5.647 -1.26,0.43 -2.22,0.796 -3.55,1.079 -7.5,1.61 -35.25,-16.877 -42.11,-21.703 0.66,-2.419 1.82,-5.551 1.96,-8.025 0.19,-3.244 -1.86,-4.785 -3.76,-7.06 z"
     id="path46" />
  <path
     fill="#494853"
     d="m 1540.8774,146.431 c 8.03,4.081 12.13,15.299 19.53,18.749 3.82,-3.069 6.99,-4.527 12,-4.015 11.11,1.138 20.63,11.209 27.07,19.68 7.81,10.288 29.01,42.24 27.41,54.972 -0.86,6.894 -4.77,12.554 -8.82,17.972 1.09,6.71 1.69,14.298 4.35,20.554 7.57,1.757 16.36,0.751 20.95,8.313 8.19,13.465 17.49,60.261 13.34,75.796 -1.91,7.137 -8.16,11.025 -14.3,14.218 -0.79,0.411 -1.6,0.797 -2.4,1.184 -1.18,7.888 -2.27,15.8 -3.73,23.641 5.66,2.962 15.03,6.334 17.4,12.755 3.82,10.296 -11.04,61.887 -17.31,72.607 -3.44,5.875 -7.54,10.243 -12.79,14.522 -5.96,1.062 -11.96,2.226 -18.03,1.227 l -0.18,0.018 -0.56,-0.496 c 2.1,-0.508 3.28,-0.716 5.07,-2.006 -1.79,-0.458 -3.45,-0.727 -4.96,-1.828 -0.25,-0.18 -0.46,-0.404 -0.69,-0.607 l -3.94,4.151 c 1.44,-6.925 8.42,-11.533 8.59,-18.664 0.05,-2.314 0.13,-3.157 -1.55,-4.673 -0.26,0.052 -0.54,0.067 -0.8,0.155 -5.47,1.88 -9.25,11.477 -11.2,16.297 l -3.03,-3.772 c 1.64,-3.048 2.45,-5.414 2.63,-8.92 0.15,-2.746 0.42,-5.232 0.97,-7.926 l 0.2,-0.928 c 2.02,1.563 1.94,1.693 4.47,1.538 3.1,-2.029 5.67,-3.786 9.31,-4.635 2.62,0.555 3.36,0.67 4.68,3.305 1.25,2.499 1.39,5.788 1.69,8.514 0.17,1.559 0.05,0.894 0.48,2.417 l 0.8,3.532 c 5.87,-4.789 8.58,-10.066 11.55,-16.896 4.95,-11.366 18.19,-39.483 12.62,-51.027 -1.41,-2.918 -2.9,-3.741 -5.7,-4.889 0.1,2.793 0.76,3.309 -1.16,5.5 l -3.14,0.819 c -0.36,0.517 -1.39,1.136 -1.9,1.527 -2.8,-0.651 -4.64,-1.065 -6.84,-3.066 -1.64,-3.67 0.39,-9.261 0.91,-13.237 -2.92,-0.241 -3.14,0.018 -5.15,-2.046 3.13,-7.831 4.17,-15.846 5.33,-24.14 -7.74,-3.375 -14.77,-6.488 -18.92,-14.365 -7.11,-13.514 -15.92,-59.632 -11.2,-73.655 1.53,-4.55 4.66,-6.907 8.74,-9.076 1.68,-1.651 3.31,-1.071 3.61,-3.901 0.55,-5.166 -3.12,-13.893 -6.55,-17.723 l 0.63,-2.236 c -0.73,-1.333 -1.42,-2.639 -2.04,-4.033 l -0.54,-1.254 0.51,-1.541 c -2.28,-5.607 -4.82,-7.336 -10.21,-9.951 -6,-2.792 -22.7,-30.042 -26.73,-37.008 -3.95,-6.823 -5.61,-10.335 -3.48,-18.133 0.43,-1.589 -0.07,-2.137 -0.6,-3.661 l 0.53,-2.6 c 4.35,3.16 7.39,3.807 12.68,3.968 -2.84,-4.646 -10.05,-9.416 -14.09,-13.478 -6.97,-6.991 -13.59,-14.382 -20.29,-21.622 z"
     id="path47" />
  <path
     fill="#fefefe"
     d="m 1623.8674,402.809 c 1.46,-5.814 2.93,-11.656 3.71,-17.606 1.35,-10.286 0,-25.803 5.02,-34.742 l 1.81,-0.506 c 2.15,2.139 2.42,4.384 2.42,7.382 0.05,19.597 -9.27,40.883 -5.13,60.248 -0.36,0.517 -1.39,1.136 -1.9,1.527 -2.8,-0.651 -4.64,-1.065 -6.84,-3.066 -1.64,-3.67 0.39,-9.261 0.91,-13.237 z"
     id="path48" />
  <path
     fill="#fefefe"
     d="m 1622.8474,280.165 c 5.31,-0.062 8.63,0.544 12.46,4.451 10.77,10.997 16.82,50.853 16.46,66.159 -0.15,6.643 -1.57,9.425 -6.41,13.908 -1.84,0.664 -1.94,0.616 -4.04,0.248 -0.54,-3.004 3.13,-8.108 4.66,-10.87 -0.52,-18.935 -3.9,-47.532 -12.58,-64.342 -5.06,-2.734 -8.1,-4.163 -10.55,-9.554 z"
     id="path49" />
  <path
     fill="#fefefe"
     d="m 1601.6374,285.46 c 2.83,-1.675 3.28,-2.24 6.66,-2.001 l 1.78,1.145 c -0.28,1.496 -0.34,2.05 -1.28,3.295 -0.33,0.4 -0.69,0.779 -0.99,1.2 -5.68,7.853 1.12,43.897 3.28,54.622 1.71,8.507 3.05,10.788 10.33,15.595 1.5,0.991 1.74,1.209 2.18,3.013 0.52,2.173 0.62,4.037 -0.69,5.793 -1.18,-0.161 -1.34,-0.109 -2.59,-0.702 -5.11,-2.421 -11.95,-11.442 -13.6,-16.754 -1.96,-6.267 -2.1,-13.667 -3.19,-20.202 -2.34,-14.056 -8.67,-31.477 -1.89,-45.004 z"
     id="path50" />
  <path
     fill="#fefefe"
     d="m 1563.3174,167.039 c 10.73,-0.021 17.88,3.242 25.45,10.849 8.73,8.781 32.61,45.228 32.01,56.683 -0.25,4.803 -1.72,8.378 -4.97,11.86 l -1.81,0.282 -1.03,-1.119 c 0.12,-4.394 0.64,-9.483 -0.43,-13.757 -3.63,-14.644 -20.55,-42.984 -31.75,-52.851 -5.3,-4.68 -12,-5.592 -16.83,-11.182 -0.21,-0.251 -0.42,-0.51 -0.64,-0.765 z"
     id="path51" />
  <path
     fill="#535056"
     d="m 1540.8774,146.431 c 8.03,4.081 12.13,15.299 19.53,18.749 1.16,1.184 1.19,1.798 2.91,1.859 0.22,0.255 0.43,0.514 0.64,0.765 4.83,5.59 11.53,6.502 16.83,11.182 11.2,9.867 28.12,38.207 31.75,52.851 1.07,4.274 0.55,9.363 0.43,13.757 l -1.9,2.148 -1.59,-0.825 c -1.08,-4.178 -2.51,-7.821 -4.37,-11.709 0.62,-1.305 1.65,-2.461 2.51,-3.619 -0.75,-7.437 -23.65,-42.366 -30.14,-48.224 -2.03,-1.825 -2.82,-2.338 -5.52,-2.107 l -1.48,0.196 c -2.84,-4.646 -10.05,-9.416 -14.09,-13.478 -6.97,-6.991 -13.59,-14.382 -20.29,-21.622 z"
     id="path52" />
  <path
     fill="#fefefe"
     d="m 1635.9974,411.266 c -0.19,-0.441 -0.4,-0.877 -0.59,-1.321 -0.64,-1.519 -0.99,-2.859 -1.33,-4.46 l 1.09,-1.42 c 3.45,0.297 8.92,2.783 11.33,5.345 4.01,4.279 1.95,15.032 0.89,20.296 -2.83,14.04 -11.08,51.323 -23.03,59.31 -3.42,2.284 -11.43,5.673 -15.58,5.074 -1.76,-1.827 -2.09,-1.778 -2.19,-4.268 2.46,-1.311 4.61,-1.816 7.3,-2.332 l 0.59,-0.858 -3.85,-1.249 c -0.24,-1.964 -0.26,-2.185 0.57,-4.1 2.55,0.211 1.32,-0.261 3.07,1.124 1.76,1.384 1.03,0.921 3.26,1.671 5.87,-4.789 8.58,-10.066 11.55,-16.896 4.95,-11.366 18.19,-39.483 12.62,-51.027 -1.41,-2.918 -2.9,-3.741 -5.7,-4.889 z"
     id="path53" />
  <path
     fill="#fefefe"
     d="m 1592.8274,235.265 c 0.04,-0.073 0.09,-0.139 0.12,-0.218 0.32,-1.002 0.57,-2.029 0.93,-3.018 1.02,-2.787 2.4,-3.943 5.05,-5.096 3.56,0.547 5.85,2.565 8.69,4.656 -0.86,1.158 -1.89,2.314 -2.51,3.619 1.86,3.888 3.29,7.531 4.37,11.709 0.69,3.904 2.47,7.202 3.57,10.968 2.74,9.319 3.78,20.008 7.78,28.841 1.46,3.241 3.87,5.683 6.35,8.171 -2.79,-0.208 -9.97,0.103 -11.76,-1.98 -0.32,-0.369 -0.57,-0.788 -0.86,-1.182 l -5.76,-3.836 c 0.94,-1.245 1,-1.799 1.28,-3.295 l -1.78,-1.145 c -3.38,-0.239 -3.83,0.326 -6.66,2.001 1.49,-2.883 1.97,-2.888 1.03,-5.933 1.68,-1.651 3.31,-1.071 3.61,-3.901 0.55,-5.166 -3.12,-13.893 -6.55,-17.723 l 0.63,-2.236 c -0.73,-1.333 -1.42,-2.639 -2.04,-4.033 l -0.54,-1.254 0.51,-1.541 c -2.28,-5.607 -4.82,-7.336 -10.21,-9.951 z"
     id="path54" />
  <path
     fill="#494853"
     d="m 1592.8274,235.265 c 0.04,-0.073 0.09,-0.139 0.12,-0.218 0.32,-1.002 0.57,-2.029 0.93,-3.018 1.02,-2.787 2.4,-3.943 5.05,-5.096 3.56,0.547 5.85,2.565 8.69,4.656 -0.86,1.158 -1.89,2.314 -2.51,3.619 l -3.48,-1.324 c -1.74,1.464 -1.46,0.657 -1.63,2.594 -0.44,4.927 2.74,10.676 3.37,15.691 -2.1,-0.952 -3.28,-1.913 -5.08,-3.33 -2.28,-5.607 -4.82,-7.336 -10.21,-9.951 z"
     id="path55" />
  <path
     fill="#535056"
     d="m 1598.2874,248.839 c 1.8,1.417 2.98,2.378 5.08,3.33 5.42,11.942 9.87,26.466 11.19,39.566 l -5.76,-3.836 c 0.94,-1.245 1,-1.799 1.28,-3.295 l -1.78,-1.145 c -3.38,-0.239 -3.83,0.326 -6.66,2.001 1.49,-2.883 1.97,-2.888 1.03,-5.933 1.68,-1.651 3.31,-1.071 3.61,-3.901 0.55,-5.166 -3.12,-13.893 -6.55,-17.723 l 0.63,-2.236 c -0.73,-1.333 -1.42,-2.639 -2.04,-4.033 l -0.54,-1.254 z"
     id="path56" />
  <path
     fill="#fefefe"
     d="m 1629.1174,298.555 c 0.63,0.114 0.61,0.037 1.2,0.608 5.38,5.184 8.6,39.066 9.99,48.388 a 63.596,63.596 0 0 0 -2.96,-2.06 c -2.79,-1.794 -4.67,-2.312 -8.02,-1.577 -3.24,2.169 -4.8,5.002 -6.84,8.263 l -1.31,0.881 c -0.22,-0.238 -0.47,-0.454 -0.66,-0.714 -3.15,-4.173 -10.08,-42.369 -8.91,-47.598 1.45,-6.529 9.76,-1.371 16.68,-5.661 0.28,-0.174 0.55,-0.353 0.83,-0.53 z"
     id="path57" />
  <path
     fill="#fefefe"
     d="m 1557.2674,180.086 0.53,-2.6 c 4.35,3.16 7.39,3.807 12.68,3.968 l 1.48,-0.196 c 2.7,-0.231 3.49,0.282 5.52,2.107 6.49,5.858 29.39,40.787 30.14,48.224 -2.84,-2.091 -5.13,-4.109 -8.69,-4.656 -2.65,1.153 -4.03,2.309 -5.05,5.096 -0.36,0.989 -0.61,2.016 -0.93,3.018 -0.03,0.079 -0.08,0.145 -0.12,0.218 l -4.75,3.623 c -6,-2.792 -22.7,-30.042 -26.73,-37.008 -3.95,-6.823 -5.61,-10.335 -3.48,-18.133 0.43,-1.589 -0.07,-2.137 -0.6,-3.661 z"
     id="path58" />
  <path
     fill="#494853"
     d="m 1557.2674,180.086 0.53,-2.6 c 4.35,3.16 7.39,3.807 12.68,3.968 l 1.48,-0.196 0.37,3.14 c -0.11,2.541 0.12,2.859 -1.54,4.724 -2.59,0.264 -4.68,0.091 -7.23,-0.184 -1.3,-0.141 -0.78,-0.164 -2.03,0.238 3.87,12.653 20.98,38.21 31.3,46.089 l -4.75,3.623 c -6,-2.792 -22.7,-30.042 -26.73,-37.008 -3.95,-6.823 -5.61,-10.335 -3.48,-18.133 0.43,-1.589 -0.07,-2.137 -0.6,-3.661 z"
     id="path59" />
  <path
     fill="#494853"
     d="m 1618.7174,400.763 c 2.01,2.064 2.23,1.805 5.15,2.046 -0.52,3.976 -2.55,9.567 -0.91,13.237 2.2,2.001 4.04,2.415 6.84,3.066 0.51,-0.391 1.54,-1.01 1.9,-1.527 l 3.14,-0.819 c 1.92,-2.191 1.26,-2.707 1.16,-5.5 2.8,1.148 4.29,1.971 5.7,4.889 5.57,11.544 -7.67,39.661 -12.62,51.027 -2.97,6.83 -5.68,12.107 -11.55,16.896 l -0.8,-3.532 c -0.43,-1.523 -0.31,-0.858 -0.48,-2.417 -0.3,-2.726 -0.44,-6.015 -1.69,-8.514 -1.32,-2.635 -2.06,-2.75 -4.68,-3.305 -3.64,0.849 -6.21,2.606 -9.31,4.635 -2.53,0.155 -2.45,0.025 -4.47,-1.538 l -0.2,0.928 c -0.55,2.694 -0.82,5.18 -0.97,7.926 -0.18,3.506 -0.99,5.872 -2.63,8.92 l 3.03,3.772 c 1.95,-4.82 5.73,-14.417 11.2,-16.297 0.26,-0.088 0.54,-0.103 0.8,-0.155 1.68,1.516 1.6,2.359 1.55,4.673 -0.17,7.131 -7.15,11.739 -8.59,18.664 l 3.94,-4.151 c 0.23,0.203 0.44,0.427 0.69,0.607 1.51,1.101 3.17,1.37 4.96,1.828 -1.79,1.29 -2.97,1.498 -5.07,2.006 l 0.56,0.496 0.18,-0.018 c -1.51,7.266 -5.09,13.601 -8.85,19.901 7.67,10.636 11.32,23.359 8.99,36.412 -3.96,22.196 -19.78,35.213 -37.31,47.198 8.57,13.372 16.21,26.773 21.01,42.01 11.58,36.704 7.49,80.085 -10.6,114.025 -21.25,39.84 -59.21,66.79 -101.86,79.63 -28,8.43 -56.67,9.87 -85.67,6.82 -10.63,-1.12 -21.18,-3.47 -31.86,-4.12 -4.45,-0.27 -9,0.85 -13.37,1.63 -12.5,2.22 -22.8,-0.37 -33.88,-6.34 -7.38,13.55 -15.64,26.83 -26.22,38.11 37.96,38.04 63.14,72.79 82.13,123.48 35.83,95.62 27.34,198.58 -14.59,290.57 -59.85,131.31 -180.32,225.84 -313.44,275.33 -96.51997,35.88 -208.31697,43.62 -307.50197,14.17 -23.898,-7.1 -46.197,-16.95 -68.827,-27.34 -1.848,13.63 -3.014,29.38 -14.491,38.8 -9.34,7.66 -22.638,7.34 -34.005,6 -28.736,-3.4 -57.362,-16.29 -83.267,-28.75 -112.847,-54.27 -210.063,-138.57 -293.531,-230.8 -15.294,-16.9 -31.167,-33.4 -45.172,-51.4 -71.783,-92.25 -133.38,-193.54 -155.876,-309.69 -6.118,-31.59 -9.801,-64.63 -5.618,-96.76 1.787,-13.73 5.842,-28.68 17.55,-37.3 11.032,-8.13 28.311,-8.47 41.419,-6.6 80.37,11.5 208.441,134.94 264.455,194.49 46.635,49.57 91.028,103 131.881,157.41 5.471,-26.12 15.553,-50.17 26.238,-74.49 8.642,-19.67 19.267,-37.65 30.637,-55.82 67.152,-107.3 172.046,-190.84 289.721,-236.59 99.098,-38.53 217.29797,-52.12 320.87797,-23.83 21.81,5.95 42.28,14.58 62.94,23.64 8.91,-9.58 18.88,-18.46 28.32,-27.55 l 10.62,-1.26 c -8.05,-13.02 -10.01,-23.54 -10.74,-38.64 -9.4,-12.97 -17.97,-24.53 -23.62,-39.67 a 139.202,139.202 0 0 1 4.06,-107.293 c 17.8,-38.782 55.68,-69.064 95.26,-83.394 50.47,-18.267 113.04,-15.126 161.64,7.623 6.56,-6.339 13.7,-11.451 21.89,-15.507 24.6,-12.191 50.86,-12.791 76.56,-4.057 3.07,-5.115 5.56,-10.56 8.15,-15.924 -3.2,-5.465 -7.58,-11.19 -7.69,-17.733 -0.25,-14.983 13.54,-59.988 23.87,-69.826 3.74,-3.561 7.91,-4.615 12.94,-4.408 z"
     id="path60" />
  <path
     fill="#fefefe"
     d="m 1265.9074,789.672 c 12.44,11.37 35.93,28.83 51.11,35.02 8.13,3.32 20.05,4.7 27.03,9.36 -29.14,0.4 -40.88,-18.23 -63.6,-30.87 -4.57,-2.55 -10.11,-4.17 -15.03,-5.97 -0.88,-2.82 -0.12,-4.73 0.49,-7.54 z"
     id="path61" />
  <path
     fill="#fefefe"
     d="m 1545.5574,510.666 c 5.73,-0.273 11.33,-0.222 17.03,0.456 14.01,1.665 25.74,7.609 34.59,18.67 -8.71,-5.432 -17.69,-9.647 -27.38,-13 -21.14,-4.319 -40.32,-1.059 -61.27,2.328 11.99,-4.981 24.13,-7.406 37.03,-8.454 z"
     id="path62" />
  <path
     fill="#fefefe"
     d="m 1595.3274,490.953 c 1.95,-4.82 5.73,-14.417 11.2,-16.297 0.26,-0.088 0.54,-0.103 0.8,-0.155 1.68,1.516 1.6,2.359 1.55,4.673 -0.17,7.131 -7.15,11.739 -8.59,18.664 -1.91,4.798 -4.25,11.606 -7.86,15.325 -1.56,1.609 -2.84,1.065 -4.98,1.15 -0.87,-7.03 5.33,-16.656 7.88,-23.36 z"
     id="path63" />
  <path
     fill="#fefefe"
     d="m 1586.5074,473.827 c 3.44,-12.815 15.9,-59.752 25.07,-66.264 1.8,-1.277 1.87,-1.298 4.12,-0.944 0.82,1.916 1.09,2.578 0.51,4.713 -1.29,4.836 -5.36,9.995 -7.32,14.866 -5.44,13.569 -9.74,28.893 -12.79,43.209 l -0.2,0.928 c -0.55,2.694 -0.82,5.18 -0.97,7.926 -0.18,3.506 -0.99,5.872 -2.63,8.92 -2.62,-4.513 -4.3,-8.353 -5.79,-13.354 z"
     id="path64" />
  <path
     fill="#fefefe"
     d="m 1340.4974,675.153 c 12.28,-0.3 26.49,5.942 37.52,11.03 18.53,8.548 41.83,25.629 48.97,45.279 -9.01,10.39 -20.74,15.95 -32.74,22.16 -4.59,2.37 0.02,3.53 -1.2,7.16 -2.42,-0.76 -4.52,-5.47 -5.94,-7.75 l 11.56,-7.66 c 3.04,-1.91 6.13,-3.8 8.99,-5.97 4.22,-3.18 8.47,-7.31 9,-12.87 0.46,-4.83 -2.42,-9.68 -5.39,-13.24 -10.86,-13.052 -34.88,-28.094 -52.14,-28.966 -4.7,-0.238 -9.11,1.067 -12.57,4.372 -6.47,6.193 -5.74,15.32 -5.64,23.524 -2.12,0.68 -5.41,-0.72 -7.4,-1.62 -1.38,-3.514 -1.7,-6.522 -1.5,-10.309 0.46,-8.859 1.71,-18.921 8.48,-25.14 z"
     id="path65" />
  <path
     fill="#fefefe"
     d="m 1617.9974,419.45 0.95,0.768 c 3.4,2.714 6.18,5.137 10.8,4.598 1.63,-1.577 2.62,-3.145 3.76,-5.095 l 1.68,-0.637 c 5.29,13.923 -8.43,39.559 -14.2,52.419 a 249.388,249.388 0 0 1 -4.26,9.043 c -0.43,-1.523 -0.31,-0.858 -0.48,-2.417 -0.3,-2.726 -0.44,-6.015 -1.69,-8.514 -1.32,-2.635 -2.06,-2.75 -4.68,-3.305 -3.64,0.849 -6.21,2.606 -9.31,4.635 4.87,-17.183 9.92,-35.276 17.43,-51.495 z"
     id="path66" />
  <path
     fill="#fefefe"
     d="m 1252.1174,809.112 c 14.87,-0.41 23.23,7.13 33.44,16.68 -0.54,1.33 -1.08,2.65 -1.68,3.96 -2.95,6.53 -9.7,23.16 -16.61,25.75 -12.14,-9.22 -24.52,-17.44 -37.75,-24.98 6.8,-8.48 13.42,-15.52 22.6,-21.41 z"
     id="path67" />
  <path
     fill="#fefefe"
     d="m 1551.5674,523.62 c 2.84,-0.282 5.68,-0.48 8.54,-0.303 8.57,0.534 18.69,1.438 24.54,8.545 3.55,4.303 4.43,9.819 3.6,15.222 -2.54,16.504 -17,31.198 -29.87,40.67 l -7.34,-7.912 c -13.55,-15.268 -28.21,-26.15 -45.2,-37.225 12.2,-11.686 29.4,-16.742 45.73,-18.997 z"
     id="path68" />
  <path
     fill="#fefefe"
     d="m 1367.3574,525.616 c 27.99,-2.894 76.51,1.856 101.9,14.027 2,0.958 1.85,0.928 2.57,3.007 -0.46,2.716 -0.53,5.393 -2.62,7.393 -8.52,-0.837 -18.14,-6.131 -26.88,-8.13 -48.9,-11.178 -100.63,-8.64 -143.86,18.923 -29.08,18.54 -48.05,43.755 -55.37,77.553 -0.27,1.602 -0.53,3.186 -0.71,4.801 -2.96,25.867 2.25,56.427 18.62,77.312 l -9.78,9.19 a 120.199,120.199 0 0 1 -20.66,-52.678 125.986,125.986 0 0 1 25.79,-94.179 c 26.78,-34.573 68.55,-51.874 111,-57.219 z"
     id="path69" />
  <path
     fill="#fefefe"
     d="m 1502.6174,558.751 c 13.89,8.256 25.74,19.857 36.56,31.724 26.56,29.144 42.05,65.051 40,104.851 -1.86,35.946 -18.73,68.826 -45.54,92.596 -39.64,35.14 -89.72,44.52 -141.1,41.24 -3.68,-0.06 -7.44,-0.76 -11.1,-1.24 3.13,-3.71 5.72,-7.9 8.42,-11.93 20.31,2.56 41.89,2.07 62,-1.76 36.14,-6.88 70.62,-27.75 91.18,-58.66 17.96,-27.01 23.84,-63.094 17.53,-94.684 -7.81,-39.079 -31.02,-70.921 -64.04,-92.724 1.88,-3.212 4.05,-6.297 6.09,-9.413 z"
     id="path70" />
  <path
     fill="#fefefe"
     d="m 1288.2374,720.482 c 22.98,-0.65 45.6,10.79 62.5,25.79 12.8,11.37 25.31,28.77 25.93,46.52 0.21,5.75 -1.19,12.02 -5.43,16.18 -4.33,4.23 -13.07,6.98 -18.98,7.01 -14.46,-2.13 -27.78,-8.79 -40.2,-16.26 -14.94,-8.99 -46.73,-29.04 -50.59,-47.44 a 19.2717,19.2717 0 0 1 3.01,-14.93 c 5.5,-8.01 14.23,-14.87 23.76,-16.87 z"
     id="path71" />
  <path
     fill="#80818e"
     d="m 76.65143,853.562 c 9.185,0.22 17.442,1.11 26.31,3.6 38.695,10.89 74.536,37.38 105.976,61.77 136.461,105.87 286.892,290.97 371.219,441.49 25.784,46.03 79.838,152.89 63.868,204.27 -1.333,4.28 -3.732,8.36 -7.866,10.43 -6.927,3.49 -14.282,0.55 -21.149,-1.55 5.037,-2.05 9.692,-3.81 13.888,-7.4 5.07,-6.35 6.674,-12.79 7.115,-20.83 4.977,-90.69 -129.772,-288.62 -187.844,-364.01 a 2051.54,2051.54 0 0 0 -118.752,-138.76 c -46.339,-50.11 -173.876,-173.45 -242.124,-175.45 -14.607,-0.42 -23.487,4.89 -33.714,14.59 1.467,-6.74 2.818,-14.71 7.039,-20.32 4.358,-5.8 9.148,-6.82 16.034,-7.83 z"
     id="path72" />
  <path
     fill="#fefefe"
     d="m 990.55743,825.672 c 15.36997,-1.18 31.38997,-0.46 46.76997,0.5 70.39,4.35 138.85,25.93 193.07,72.48 51.85,44.52 78.89,107.63 83.94,174.91 6.61,88.13 -35.65,179.43 -92.06,245.21 a 516.083,516.083 0 0 1 -352.61997,182.18 c -66.034,4.92 -129.715,-4.07 -190.088,-31.9 -11.246,-5.19 -27.514,-12.35 -36.521,-20.82 -1.594,-1.5 -2.675,-2.58 -2.829,-4.82 l 1.205,-0.82 c 25.018,14.61 50.247,25.83 77.761,34.78 a 423.166,423.166 0 0 0 193.512,9.96 497.499,497.499 0 0 0 324.35997,-204.64 c 50.22,-71.62 79.37,-157.89 63.73,-245.7 -11.4,-64.06 -44.92,-116.65 -98.52,-153.62 -72.4,-49.93 -168.86,-61.24 -254.48997,-50.73 a 621.129,621.129 0 0 0 -51.26,8.4 c -6.55,1.38 -12.83,3.68 -19.39,4.88 l 0.13,-0.67 c 35.19,-13.04 76,-17.88 113.3,-19.58 z"
     id="path73" />
  <path
     fill="#fefefe"
     d="m 46.94043,922.052 c 4.103,5.89 6.604,14.73 9.47,21.41 a 388.602,388.602 0 0 0 12.039,25.21 c 15.181,29.29 33.379,57.96 51.331,85.64 29.864,46.04 63.266,90.19 96.148,134.1 47.582,63.54 96.9,124.56 149.403,184.1 14.211,16.11 27.92,32.69 42.521,48.46 a 1226.04,1226.04 0 0 0 146.321,135.27 c -17.049,-4.26 -36.52,-16.6 -51.839,-25.48 a 1016.93,1016.93 0 0 1 -222.964,-174.92 c -96.702,-101.13 -178.887,-217.22 -217.328,-353.19 -7.031,-24.88 -15.655,-54.69 -15.102,-80.6 z"
     id="path74" />
  <path
     fill="#fefefe"
     d="m 1379.3274,552.643 c 25.83,-3.856 67.22,2.085 89.45,16.57 4.3,11.992 5.74,24.356 16.47,32.885 9.47,7.517 22.27,7.862 33.74,6.458 18.82,26.017 30.35,56.796 27.71,89.22 -2.36,28.866 -18.29,55.696 -40.35,73.976 -32.56,26.99 -71.51,31.49 -112.15,27.57 0.21,-8.32 -0.27,-16.68 -0.55,-24.99 13.91,-0.07 23.63,-3.37 35.04,-11.13 3.54,-3.63 6.11,-7.67 7.85,-12.45 5.16,-14.24 3.66,-31.71 -2.84,-45.306 -9.84,-20.563 -33.68,-38.626 -54.83,-46.089 -14.38,-5.071 -30.5,-5.765 -44.4,1.299 -8.79,4.471 -17.13,12.405 -19.91,22.098 -2.5,8.711 -1.08,16.554 3.24,24.334 -15.74,-1.809 -28.92,0.402 -43.62,6.054 -7.07,-15.13 -14.91,-30.412 -16.51,-47.275 -2.3,-24.273 5.24,-46.724 20.79,-65.391 24.43,-29.334 63.73,-44.46 100.87,-47.833 z"
     id="path75" />
  <path
     fill="#fefefe"
     d="m 1012.4974,798.742 c 66.01,-4.3 136.69,6.83 195.66,37.64 65.3,34.11 118.3,94.85 140.24,165.56 27.18,87.6 1.78,188.89 -39.93,267.98 -63.94,121.23 -186.55,209.62 -315.84997,249.45 -107.43,33.09 -230.662,34.96 -331.965,-18.6 a 585.222,585.222 0 0 0 -9.323,-30.18 c 81.683,44.74 175.435,53.61 266.358,38.76 a 525.673,525.673 0 0 0 338.02997,-210.86 c 36.93,-54.97 64.24,-111.08 71.53,-177.73 7.92,-72.48 -11.63,-147.65 -57.71,-204.58 -49.72,-61.42 -125.01,-95.04 -202.46,-103.3 -143.14997,-15.26 -273.25697,34.23 -383.64397,123.82 -72.903,59.17 -135.6,134.23 -159.103,227.13 -4.953,19.58 -7.39,39.21 -9.469,59.26 -5.545,-7.25 -10.739,-14.75 -15.962,-22.24 19.794,-64.99 38.284,-107.45 77.927,-163.14 12.419,-17.45 25.339,-34.7 39.677,-50.63 23.674,-26.3 49.675,-48.64 77.88,-69.89 68.26,-51.43 137.062,-84.38 220.294,-103.69 32.48,-7.53 64.49,-12.96 97.81997,-14.76 z"
     id="path76" />
  <path
     fill="#80818e"
     d="m 88.85043,888.442 c 20.094,-1.67 36.431,3.38 53.978,13.06 54.958,30.32 108.359,79.68 152.517,123.81 84.13,84.07 155.125,169.33 219.392,269.56 26.086,40.69 50.222,81.59 71.196,125.14 12.001,24.92 24.267,50.52 31.866,77.2 4.395,15.43 12.929,45.64 3.938,60.57 -3.056,5.07 -7.697,6.32 -13.175,7.46 l -9.34,2.2 c -16.09,-11.48 -32.392,-22.84 -47.797,-35.23 -36.778,-29.57 -71.081,-62.97 -104.001,-96.72 -55.433,-56.84 -105.855,-118.38 -155.598,-180.14 -45.8,-56.87 -89.903,-114.27 -131.17,-174.53 -20.291,-29.63 -39.977,-58.91 -57.788,-90.12 -11.605,-20.34 -25.862,-42.82 -30.257,-66.07 -2.247,-11.89 -0.64,-21.49 6.207,-31.43 3.203,-1.9 6.618,-3.29 10.032,-4.76 z"
     id="path77" />
  <path
     fill="#fefefe"
     d="m 992.71743,843.682 c 74.96997,-1.24 162.23997,15.84 218.56997,68.14 a 221.586,221.586 0 0 1 71.5,156.77 c 3.13,93.85 -41.24,183.33 -104.2,250.74 -87.65,93.83 -209.62997,146.25 -337.56497,150.46 -62.819,2.16 -128.301,-15.13 -182.192,-47.27 -10.272,-6.12 -21.732,-12.87 -30.349,-21.14 -2.469,-2.37 -4.627,-4.87 -6.42,-7.79 -15.019,-24.48 -28.474,-50.27 -42.968,-75.12 -7.688,-13.18 -18.39,-26.68 -24.104,-40.74 -3.478,-8.55 -3.873,-18.21 -4.236,-27.33 -3.839,-96.52 37.459,-178.35 101.964,-247.68 65.047,-69.91 151.402,-128.87 245.93,-149.23 30.97,-6.67 62.5,-8.64 94.07,-9.81 z"
     id="path78" />
  <path
     fill="#494853"
     d="m 978.30743,848.672 c 78.12997,-3.3 149.31997,11.46 209.62997,64.61 a 219.008,219.008 0 0 1 73.14,150.49 c 5.02,82.61 -33.28,168.21 -87.64,228.9 a 468.606,468.606 0 0 1 -324.70797,155.75 72.6186,72.6186 0 0 1 -3.442,0.23 c -70.315,3.25 -160.708,-20.93 -212.975,-68.85 -40.759,-37.36 -64.155,-92.08 -66.399,-146.86 -3.601,-87.9 39.865,-173.05 98.401,-236.01 66.844,-71.9 156.796,-126.92 254.543,-143.32 19.71,-3.31 39.52,-4.22 59.45,-4.94 z"
     id="path79" />
  <path
     fill="#fefefe"
     d="m 969.29743,860.672 c 71.22997,-3.9 143.46997,11.48 199.65997,57.46 41.09,33.62 69.77,83.29 74.95,136.34 7.87,80.51 -26.87,161.15 -77.36,222.48 -47.62,57.85 -126.99,110.16 -197.96997,133.03 -35.46,11.42 -71.34,17.37 -108.315,21.1 -72.76,2.94 -154.771,-10.27 -211.255,-59.99 -37.986,-33.43 -62.198,-83.98 -65.225,-134.35 -4.924,-81.97 34.429,-164.77 88.093,-224.8 76.755,-85.86 181.104,-144.69 297.422,-151.27 z"
     id="path80" />
  <path
     fill="#393840"
     d="m 710.18343,1278.912 c 1.558,-3.14 2.43,-6.36 5.406,-8.29 2.718,1.37 3.578,3.33 5.291,5.8 -3.512,1.9 -6.767,2.1 -10.697,2.49 z"
     id="path81" />
  <path
     fill="#393840"
     d="m 1064.8274,1002.152 c 12.99,10.55 25.57,22 33.9,36.71 l -3.71,2.79 c -8.99,-13.64 -18.61,-24.25 -31.22,-34.64 z"
     id="path82" />
  <path
     fill="#393840"
     d="m 845.12543,1350.982 4.737,1.23 0.689,1.27 -0.258,0.84 c -0.602,2.01 -1.093,3.57 -0.867,5.7 -5.519,9.45 -13.499,36.42 -15.142,47.46 -0.751,5.04 0.203,5.54 3.14,9.37 l -0.616,1.7 c -5.598,1.5 -13.211,0.75 -19.084,0.83 2.698,-1.89 5.84,-3.91 7.794,-6.61 6.684,-9.23 15.577,-48.46 19.607,-61.79 z"
     id="path83" />
  <path
     fill="#393840"
     d="m 820.25743,953.702 c -10.407,-5.54 -18.514,-14.33 -30.968,-14.81 -0.618,-0.03 -1.237,-0.04 -1.856,-0.05 l -1.082,-1.32 0.76,-2.13 c 5.643,-4.73 12.451,-10.86 19.27,-13.6 l 1.619,1.56 c -0.272,3.27 -1.917,4.66 -3.844,7.26 7.03,6.8 17.064,12.08 25.421,17.21 l -2.787,0.08 -0.114,0.99 2.686,3.26 -0.179,1.54 -1.356,0.38 -0.885,-0.68 c -0.949,-0.72 -1.897,-1.35 -2.906,-1.98 -0.295,0.23 -0.586,0.45 -0.885,0.67 -1.483,1.07 -0.945,0.69 -2.894,1.62 z"
     id="path84" />
  <path
     fill="#494853"
     d="m 1098.7274,1038.862 c 19.31,36.38 21.39,67.69 9.37,107.11 -1.07,3.49 -2.24,6.95 -3.19,10.47 l -3.48,-2.24 c 2.45,-7.76 7.32,-18.9 6.52,-27.09 l -1.32,-1.24 c 1.14,-1.35 2.1,-2.46 2.84,-4.09 0.16,-0.36 0.3,-0.73 0.44,-1.1 0.02,-34.5 1.42,-47.22 -14.89,-79.03 z"
     id="path85" />
  <path
     fill="#393840"
     d="m 1101.4274,1154.202 3.48,2.24 c -19.99,47.57 -54.03,92.67 -98.75,119.62 l 0.46,-4.63 c 2.13,-3.25 21.25,-16.72 25.72,-20.58 a 258.979,258.979 0 0 0 69.09,-96.65 z"
     id="path86" />
  <path
     fill="#32313b"
     d="m 753.44143,1286.562 4.407,-0.93 c 36.673,26.94 77.66,33.42 122.219,31.33 4.3,-1.97 32.28,-5.37 39.49,-6.51 1.98,0.26 3.69,0.4 5.7,0.43 1.74,0.03 2.2,0.07 3.56,1.04 -12.92,4.25 -34.84,10.33 -48.38,9.06 -45.089,4.94 -91.306,-6.08 -126.996,-34.42 z"
     id="path87" />
  <path
     fill="#393840"
     d="m 678.71543,1032.952 c 5.775,3.82 11.112,8.85 16.714,13.02 14.083,10.49 28.534,19.29 44.465,26.71 3.653,-2.33 7.485,-4.42 11.24,-6.59 -5.184,7.84 -11.153,16.36 -18.115,22.68 -0.05,-1.29 -0.076,-2.59 -0.201,-3.86 -0.165,-1.67 -0.106,-3.51 -1.347,-4.72 -5.906,-5.77 -15.174,-10.42 -22.104,-15.06 a 314.834,314.834 0 0 1 -30.516,-22.96 c -5.432,4.66 -10.751,9.24 -16.75,13.16 3.064,-9.23 9.76,-15.82 16.614,-22.38 z"
     id="path88" />
  <path
     fill="#32313b"
     d="m 845.12543,1350.982 c 1.097,-3.97 2.204,-11.61 5.837,-13.76 5.697,5.74 17.125,55.52 20.175,67.02 1.4,5.27 8.28,7.16 9.16,11.91 -2.77,1.77 -13.13,3.18 -16.4,2.15 -1.17,-0.38 -1.187,-0.48 -2.03,-1.11 -0.123,-2.51 0.151,-4.47 0.575,-6.95 0.562,-3.27 0.403,-4.88 -0.672,-7.93 -0.728,-2.08 -1.438,-4.15 -2.196,-6.22 -8.34,-0.57 -15.657,-1.05 -23.561,-4 7.4,-0.46 14.741,-0.76 22.157,-0.78 -2.867,-10.37 -5.397,-21.07 -8.744,-31.29 -0.226,-2.13 0.265,-3.69 0.867,-5.7 l 0.258,-0.84 -0.689,-1.27 z"
     id="path89" />
  <path
     fill="#32313b"
     d="m 1214.8074,1010.312 c 1.33,0.72 2.05,1.15 2.87,2.5 1.68,2.74 3.38,8.86 2.82,11.98 -1.94,1.32 -3.14,1.43 -5.5,1.25 -2.53,-0.19 -3.96,-0.5 -6.5,0.36 -6.03,2.06 -75.24,29.55 -75.48,29.8 -0.75,0.8 -0.95,1.99 -1.43,2.98 -0.28,0.93 -0.03,0.32 -1.17,1.59 -2.67,-2.4 -3.83,-8.16 -5,-11.57 14.92,-3.95 80.83,-28.98 89.39,-38.89 z"
     id="path90" />
  <path
     fill="#32313b"
     d="m 707.05043,1132.882 c -0.308,-0.05 -0.616,-0.1 -0.924,-0.15 -10.111,-1.5 -21.174,-0.85 -31.417,-0.97 -18.483,-0.24 -36.748,-1 -55.199,0.57 -1.018,-1.76 -2.41,-3.6 -2.751,-5.61 1.217,-3.05 2.229,-7.02 4.504,-9.39 3.792,-1.06 12.148,3.05 17.031,3.19 25.105,0.71 50.463,2.66 75.572,1.63 l -4.88,10.98 z"
     id="path91" />
  <path
     fill="#32313b"
     d="m 829.57743,947.822 c 0.621,-9.22 1.777,-19.16 0.595,-28.34 -2.689,-1.94 -4.953,-0.51 -6.043,-3.72 2.089,-3.79 11.477,-7.61 15.814,-8.78 1.096,-0.3 1.555,-0.24 2.575,-0.22 l 0.406,0.91 c -2.061,3.31 -4.842,5.78 -7.998,8.05 a 428.317,428.317 0 0 1 0.852,37.64 c 7.685,5.43 15.551,11.37 24.061,15.48 3.958,1.91 10.608,1.9 13.648,4.71 -4.14,4.16 -12.094,7.2 -17.413,9.84 l -1.994,-0.52 c -0.17,-0.46 -0.334,-0.91 -0.51,-1.37 -0.217,-0.55 -0.454,-1.1 -0.668,-1.66 -0.152,-0.4 -0.235,-0.82 -0.431,-1.2 -2.342,-4.5 -13.816,-10.02 -18.056,-14.01 -0.437,7.52 -1.949,16.56 -0.264,23.88 l 3.218,0.8 c -0.551,2.59 -3.1,3.96 -5.372,5.28 -1.076,0.62 -2.268,0.96 -3.447,1.32 l -1.668,-0.74 c -0.031,-2.26 0.381,-3.92 0.945,-6.07 2.415,-9.22 1.806,-19.72 1.967,-29.23 l -9.537,-6.17 c 1.949,-0.93 1.411,-0.55 2.894,-1.62 0.299,-0.22 0.59,-0.44 0.885,-0.67 1.009,0.63 1.957,1.26 2.906,1.98 l 0.885,0.68 1.356,-0.38 0.179,-1.54 -2.686,-3.26 0.114,-0.99 z"
     id="path92" />
  <path
     fill="#32313b"
     d="m 714.45943,992.742 c 2.087,0.88 1.22,0.15 2.417,2.39 -3.457,8.8 -14.7,17.34 -21.54,23.85 22.015,-1.83 57.702,16.95 78.959,24.87 -7.175,4.1 -12.104,9.68 -17.576,15.75 -0.919,0.83 -0.279,0.35 -2.134,1.08 -0.086,-1.21 -0.077,-2.8 -0.621,-3.9 -4.185,-8.49 -36.807,-24.58 -46.915,-29.08 -9.112,-4.05 -11.825,-3.2 -20.711,0.21 l -1.404,-1.68 c -0.026,-1.99 -0.086,-2.73 1.122,-4.44 6.41,-9.05 19.869,-17.91 27.613,-27.99 0.267,-0.35 0.527,-0.7 0.79,-1.06 z"
     id="path93" />
  <path
     fill="#393840"
     d="m 956.36743,1314.392 c 13.85,22.76 20.05,58.93 38.48,77.54 -8.17,4.24 -16.93,7.14 -25.14,11.51 l -1.85,-0.9 c -2.67,-9.73 -23.81,-63.77 -28.35,-70.3 -1.51,-2.16 -3.97,-3.86 -6.06,-5.43 7.75,-3.98 15.4,-8.02 22.92,-12.42 z"
     id="path94" />
  <path
     fill="#fefefe"
     d="m 948.13743,1326.142 c 1.52,0.06 2.8,0.28 4.29,0.56 2.96,3.45 25.34,56.73 27.58,62.88 0.87,2.38 1.02,4.19 0.95,6.69 -9.83,-10.51 -28.51,-55.45 -32.82,-70.13 z"
     id="path95" />
  <path
     fill="#393840"
     d="m 1129.4974,1123.532 c 2.7,1.58 4.02,4.2 6.93,5.6 16.43,7.89 78.61,16.02 87.22,23.1 -0.39,2.94 -1.13,4.45 -2.6,6.95 -6.6,1.19 -76.41,-17.06 -89.03,-20.29 -2.25,1.45 -1.54,0.45 -2.18,2.97 3.17,5.24 14.21,6.72 19.78,8.23 8.88,2.61 54.03,16.09 59.89,15.73 3.1,-0.19 7.12,-2.09 10.05,-3.13 0.08,1.84 0.23,1.46 -0.18,2.89 -1.13,3.97 -3.76,14.42 -7.08,16.43 -2.08,-2.04 -4.44,-4.58 -7.08,-5.89 -11.31,-5.64 -70.97,-19.21 -85.11,-21.44 2.9,-10.41 7.97,-20.4 9.39,-31.15 z"
     id="path96" />
  <path
     fill="#393840"
     d="m 993.82743,1298.382 c 4.79,6.14 17.93997,46.87 23.78997,58.49 2.5,4.97 9.04,16.14 8.48,21.33 -1.74,2.27 -1.9,2.35 -4.63,3.21 -9.04,-3.6 -24.47997,-60.69 -33.69997,-71.93 -2.37,0.83 -2.55,0.97 -4.07,2.97 -0.36,4.83 4.95,13.16 7,17.94 a 1657.37,1657.37 0 0 1 23.16997,54.03 c -5.55,2.79 -11.14,5.06 -16.94997,7.26 -11.76,-26.4 -24.49,-52.8 -37.52,-78.6 12.66,-3.17 23.05,-8.55 34.43,-14.7 z"
     id="path97" />
  <path
     fill="#32313b"
     d="m 691.47943,1217.402 c 1.286,-0.14 2.028,0.18 3.244,0.56 1.639,2.45 2.639,3.13 2.426,6.13 -15.378,10.42 -31.69,19.53 -46.366,30.97 -10.629,8.28 -21.327,20.76 -32.503,27.39 -2.521,-1.75 -3.366,-4.02 -4.8,-6.66 -3.446,-10.24 -13.406,-34.39 -9.05,-44.71 l 1.896,-0.58 c 3.237,1.32 2.076,2.24 4.319,4.02 25.668,-9.41 54.242,-10.83 80.834,-17.12 z"
     id="path98" />
  <path
     fill="#fefefe"
     d="m 662.62443,1231.432 1.549,0.04 0.291,0.73 c -8.037,6.04 -16.088,12.06 -23.856,18.45 -7.226,5.94 -14.889,13.85 -23.104,18.22 l -1.497,-0.9 c -2.312,-7.79 -4.548,-15.47 -6.007,-23.47 17.605,-3.09 35.281,-8.64 52.624,-13.07 z"
     id="path99" />
  <path
     fill="#32313b"
     d="m 720.88043,1276.422 3.569,5.34 c -1.97,1.57 -0.879,1.17 -2.952,1.38 -6.493,0.66 -8.074,2.2 -11.999,7.07 -6.583,8.16 -12.82,18.11 -16.819,27.81 13.005,-7.84 27.964,-15.91 38.701,-26.66 2.813,3.48 6.484,7.18 8.062,11.39 -2.793,1.15 -3.774,-0.53 -6.156,-0.08 -7.053,1.34 -41.056,22.34 -45.738,27.86 -6.764,7.97 -10.784,19.52 -15.064,29.02 17.885,-8.86 35.913,-19.15 52.846,-29.72 8.158,-5.09 15.873,-11.29 24.266,-15.95 2.039,-1.14 3.735,-1.78 6.103,-1.85 l 1.281,1.4 c -1.273,5.76 -15.464,14.71 -19.697,20.01 -5.867,7.35 -21.808,39.42 -24.35,47.98 -0.744,2.51 -0.174,4.78 -0.065,7.29 0.043,1 -0.007,2 -0.037,3 -4.418,0.44 -10.592,-1.28 -14.577,-3.26 -0.154,-3.36 5.545,-9.4 7.499,-12.59 8.084,-13.19 13.887,-27.71 21.873,-40.94 -5.834,3.75 -50.393,29.35 -51.231,30.3 -0.056,0.06 -0.518,2.15 -0.52,2.16 -0.192,1.03 -0.318,2.06 -0.464,3.09 -1.523,1.74 -2.368,2.16 -4.592,2.76 -3.912,-1.32 -7.952,-3.44 -10.195,-7.05 0.666,-1.17 1.259,-1.9 2.196,-2.89 8.707,-9.23 17.117,-29.18 22.113,-41.22 -3.225,4.1 -6.469,8.34 -10.168,12.02 -6.231,6.19 -15.406,11.52 -18.651,19.75 -0.936,2.38 -1.463,3.3 -3.797,4.28 -4.871,-2.67 0.061,-5.6 -8.302,-7.64 l -0.778,-1.42 c 3.688,-5.46 12.948,-9.05 18.122,-13.98 15.939,-15.17 36.663,-38.04 48.824,-56.17 3.93,-0.39 7.185,-0.59 10.697,-2.49 z"
     id="path100" />
  <path
     fill="#32313b"
     d="m 1032.4774,947.402 c 8.92,-9.58 45.08,-39.66 47.38,-48.93 -1.84,-2.27 -3.11,-3.01 -3.13,-5.99 4.25,-1.6 13.6,2.82 17.66,4.81 2.24,1.1 3.13,1.62 4.08,3.94 -1.64,1.61 -2.4,1.94 -4.79,1.83 -0.96,-0.04 -2.53,-0.49 -3.5,-0.74 -7.59,6.52 -23.7,57.65 -26.71,69.05 l 1.28,-1 c 11.07,-8.8 49.33,-42.56 54.2,-53.38 -0.26,-4.52 -4.04,-8.04 -7,-11.18 l -0.23,-1.36 c 5.44,0.09 8.05,5.68 12.48,8.16 2.47,1.39 5.87,1.44 8.64,2.75 l 1.07,1.98 c -1.53,3.35 -3.16,1.91 -4.91,3.99 -2.38,2.83 -4.26,7.91 -6.14,11.29 a 3016.56,3016.56 0 0 0 -20.03,35.75 c 13.47,-11.5 26.9,-23.24 38.12,-37.03 -2.36,-3.35 -4.97,-6.68 -6.91,-10.29 5.09,2.51 15.16,6.17 18.1,10.98 -2.02,4.61 -9.55,7.78 -13.44,11.3 -9.12,8.27 -40.77,36.43 -45.88,44.34 -1.6,2.49 -1.21,7.13 -1.19,9.98 -2.84,0.66 -6.34,-0.9 -8.71,-2.43 -1.6,-1.04 -2.17,-1.31 -2.79,-3.16 7.46,-10.36 12.19,-21.52 18.09,-32.77 3.67,-7 8.16,-13.77 11.32,-21.01 -14.29,15.72 -29.86,29.84 -44.36,45.21 l -10.88,-6.14 c 6.89,-21.85 11.02,-44.46 21.3,-65.18 -14.58,14 -29.28,27.76 -43.48,42.16 -1.73,2.79 -3.49,6.14 -5.89,8.4 -1.69,1.6 -3.94,2.13 -6.18,1.86 l -0.7,-1.85 c 2.11,-6.91 7.86,-10.77 13.13,-15.34 z"
     id="path101" />
  <path
     fill="#393840"
     d="m 707.05043,1132.882 1.936,0.25 c -1.536,5.88 -3.313,11.53 -5.378,17.24 -11.886,-0.12 -82.523,-6.3 -87.717,-2.45 1.422,1.52 2.839,2.33 4.907,2.76 7.582,1.55 16.72,0.94 24.506,1.29 l 51.13,2.63 0.966,0.93 0.078,-0.78 4.828,0.04 0.341,0.81 c -2.035,6.76 -5.163,24.23 -8.043,28.78 -27.518,-1.8 -56.931,5.58 -83.873,10.86 -2.915,2.42 -2.625,5.2 -4.286,8.55 l -2.104,0.24 -1.257,-1.42 c -0.752,-5.12 0.183,-10.37 0.947,-15.46 0.436,-2.91 0.662,-5.21 3.122,-7 l 1.851,0.51 c 0.144,0.33 0.28,0.66 0.433,0.98 0.904,1.91 1.468,3.05 3.545,3.66 6.562,1.91 73.061,-9.15 80.457,-13.29 l 0.063,-1.23 c -2.43,-0.49 -79.075,2.15 -81.452,2.72 -0.879,1.53 -1.787,2.89 -2.875,4.27 l -1.939,-0.33 c -2.116,-3.95 -1.488,-9.09 -0.589,-13.33 0.531,-0.33 0.986,-0.84 1.592,-0.99 4.13,-1.01 13.111,0.69 17.864,0.77 a 1727.71,1727.71 0 0 0 67.72,0.36 l 1.2,-1.26 c -3.185,-1.01 -79.594,-1.92 -87.959,-1.63 2.367,-9.18 4.557,-18.43 7.815,-27.34 16.803,0.41 76.28,6.15 87.787,3.71 2.46,-0.53 3.211,-2.9 4.384,-4.85 z"
     id="path102" />
  <path
     fill="#393840"
     d="m 1073.6074,1228.742 c 27.86,16.33 52.96,36.66 80.01,54.14 -3.18,3.56 -6.31,7.04 -9.87,10.24 -2,-0.06 -2.91,-0.05 -4.86,0.61 -0.1,0.74 -0.2,1.48 -0.36,2.22 -1.6,7.62 -15.87,18.19 -22.54,22.32 -3.3,2.05 -7.18,4.08 -11.08,3.2 1.53,-1.75 2.79,-3.11 3.68,-5.29 -4.1,-6.04 -54.49,-48.75 -62.12,-53.86 l -1.69,-1.12 c 3.06,-3.41 6.4,-6.62 9.61,-9.89 16.78,11.44 36.03,19.83 53.27,30.84 4.97,2.93 24.42,16.49 27.7,16.51 -4.19,-8.64 -64.47,-44.42 -77.65,-50.87 2.51,-3.19 5.34,-6.15 8.06,-9.17 12.32,8.3 25.17,15.79 37.42,24.23 11.7,8.05 25.48,20.19 38.07,26.05 l 0.41,-1.22 c -5.58,-8.51 -45.15,-33.79 -56.73,-42.73 -4.83,-3.73 -10.26,-4.9 -15.9,-7 0.04,-3.19 2.86,-6.56 4.57,-9.21 z"
     id="path103" />
  <path
     fill="#fefefe"
     d="m 1079.2374,1278.102 c 9.5,3.04 37.87,20.71 45.86,27.8 l -0.03,1.48 c -1.97,0.81 -4.45,2.13 -6.52,2.47 -4.79,0.78 -34.2,-27.12 -39.31,-31.75 z"
     id="path104" />
  <path
     fill="#32313b"
     d="m 954.91743,903.222 c 3.65,-5.68 7.22,-11.34 10.46,-17.26 -1.55,-1.25 -0.82,-0.84 -2.76,-1.64 -0.47,-0.2 -0.94,-0.37 -1.41,-0.56 0.43,-2.18 0.95,-2.55 2.78,-3.9 7.22,-5.35 29.43,-2.71 38.11997,-1.31 l 0.62,1.81 -1.01,-0.98 c -1.61,1.21 -3.02997,2.47 -4.53997,3.81 -2.4,6.68 -11.37,60.32 -10.62,66.23 1.03,1.47 2.02,2.44 3.45,3.51 2.03,1.52 1.56,1.09 2.03,3.31 -5.62,3.46 -22.43,2.45 -28.94,1.52 0.41,-1.71 1.11,-4.01 0.98,-5.76 -0.52,-6.72 -11.29,-23.5 -14.94,-30.41 -5.93,9.19 -13.93,19.51 -17.07,29.98 0.76,3.33 3.65,1.14 5.77,4.03 -0.62,2.09 -0.81,2.25 -2.49,3.67 -3.39,0.46 -7.4,0.64 -10.29,2.69 -5.18,3.69 -5.2,10.73 -6,16.45 0.28,0.01 0.57,0.02 0.85,0.02 10,0 20.06,-2.66 30.07,-3.31 40.11,-2.63 81.27997,3.44 114.84997,27.03 l -1.03,4.86 c -45.29,-30.87 -93.82997,-31.36 -145.99997,-22.93 l -0.18,0.83 c -2.5,11.09 -7.28,21.58 -7.54,33.13 -1.02,44.47 19.12,38.48 -10.29,86.11 l -0.5,3.41 -1.8,2.65 c -3.79,0.53 -7.29,-0.29 -11.02,-0.96 6.88,-9.54 -5.7,-23.77 -5.68,-34.72 0.01,-13.52 6.63,-27.33 10.26,-40.2 4.55,-16.13 8.3,-32.02 14.19,-47.79 a 1322,1322 0 0 0 -30.82,9.95 l -4.06,-1.9 c 11.79,-5.36 24.12,-8.51 36.73,-11.24 12.26,-22.07 25.38,-45.22 40.27,-65.58 -5.98,-12.13 -11.61,-25.64 -21.78,-34.89 6.76,-1.2 14.88,-3.33 21.72,-3.16 2.66,0.07 2.76,-0.09 4.51,1.89 -1.2,1.68 -3.05,2.42 -4.82,3.43 l 1.34,0.33 -2.03,0.13 c 0.88,5.64 5.83,12.61 8.62,17.72 z"
     id="path105" />
  <path
     fill="#fefefe"
     d="m 894.00743,1085.602 c 3.08,0.14 6.13,0.24 9.21,0.2 l 0.78,1.35 -2.06,3.91 -3.03,2.36 c -2.84,-1.45 -3.62,-4.94 -4.9,-7.82 z"
     id="path106" />
  <path
     fill="#fefefe"
     d="m 908.32743,991.002 c 0.82,8.03 -3.93,17.39 -3.9,25.79 0.05,16.49 7.99,44.49 1.55,58.79 -2.83,2.5 -6.65,2.41 -10.25,2.77 l -2.54,-0.81 c -2.4,-5.7 11.81,-77.87 15.14,-86.54 z"
     id="path107" />
  <path
     fill="#fefefe"
     d="m 979.70743,879.052 c 2.18,3.04 4.54,3.68 7.61,5.44 0.17,1.25 0.16,2.45 0.13,3.71 -0.4,15.71 -5.65,32.26 -6.59,48.71 -0.15,2.6 0.03,12.76 -1.44,14.13 -2.54,-1.52 -3.08,-3.14 -4.54,-5.68 -5.61,-12.27 -11.28,-24.44 -17.58,-36.38 6.87,-10.96 12.51,-21.37 22.41,-29.93 z"
     id="path108" />
  <path
     fill="#fefefe"
     d="m 917.79743,984.082 c 52.17,-8.43 100.70997,-7.94 145.99997,22.93 12.61,10.39 22.23,21 31.22,34.64 16.31,31.81 14.91,44.53 14.89,79.03 -0.14,0.37 -0.28,0.74 -0.44,1.1 -0.74,1.63 -1.7,2.74 -2.84,4.09 l 1.32,1.24 a 1324.26,1324.26 0 0 1 -13.9,0.06 c -4.07,-4.35 -14.04,-3.96 -19.76,-5.1 -8.84,-3.53 -24.5,-2.62 -33.54,0.05 -0.84,-0.22 -1.53,-0.91 -2.23,-1.42 l -0.36,-2.74 c -6.85,4.23 -16.51,7.36 -24.55,5.71 -1.29,-0.26 -1.3,-0.29 -2.38,-0.63 -3.33,0.86 -5.29,0.88 -8.68,0.5 -1.36,-0.16 -2.32,-0.04 -3.62997,0.33 -17.23,-1.12 -34.39,-1.51 -51.66,-1.66 -10.31,-0.09 -21.32,0.7 -31.46,-0.85 l -2.32,0.63 c -2.25,-2.96 -4.83,-5.08 -7.69,-7.43 l -0.15,-1.57 c 1.36,0.04 2.68,0.16 4.03,0.3 -2.32,-3.65 -6.46,-6.51 -9.88,-9.14 29.41,-47.63 9.27,-41.64 10.29,-86.11 0.26,-11.55 5.04,-22.04 7.54,-33.13 z"
     id="path109" />
  <path
     fill="url(#Gradient2)"
     d="m 1017.7474,1099.692 c 22.88,12.57 37.84,14.14 63.43,16.94 9.65,1.06 19.14,2.73 28.73,4.05 -0.14,0.37 -0.28,0.74 -0.44,1.1 -0.74,1.63 -1.7,2.74 -2.84,4.09 l 1.32,1.24 a 1324.26,1324.26 0 0 1 -13.9,0.06 c -4.07,-4.35 -14.04,-3.96 -19.76,-5.1 -8.84,-3.53 -24.5,-2.62 -33.54,0.05 -0.84,-0.22 -1.53,-0.91 -2.23,-1.42 l -0.36,-2.74 c -6.85,4.23 -16.51,7.36 -24.55,5.71 -1.29,-0.26 -1.3,-0.29 -2.38,-0.63 -3.33,0.86 -5.29,0.88 -8.68,0.5 -1.36,-0.16 -2.32,-0.04 -3.62997,0.33 -17.23,-1.12 -34.39,-1.51 -51.66,-1.66 -10.31,-0.09 -21.32,0.7 -31.46,-0.85 l -2.32,0.63 c -2.25,-2.96 -4.83,-5.08 -7.69,-7.43 l -0.15,-1.57 c 1.36,0.04 2.68,0.16 4.03,0.3 8.37,-0.11 16.82,-0.49 25.18,-0.23 0.55,-0.08 1.1,-0.18 1.65,-0.26 30.03,-4.42 53.08,5.23 81.24997,-13.11 z"
     id="path110"
     style="fill:url(#Gradient2)" />
  <path
     fill="#32313b"
     d="m 913.47743,1121.992 c -2.25,-2.96 -4.83,-5.08 -7.69,-7.43 l -0.15,-1.57 c 1.36,0.04 2.68,0.16 4.03,0.3 8.37,-0.11 16.82,-0.49 25.18,-0.23 l -1.78,2.46 c -0.38,0.03 -0.76,0.05 -1.15,0.08 -1.56,0.12 -3.09,0.33 -4.64,0.55 l -0.99,1.28 c 1.24,1.77 1.56,1.56 3.51,2.26 -4.61,1.62 -9.26,0.98 -14,1.67 z"
     id="path111" />
  <path
     fill="#fefefe"
     d="m 1018.9474,1107.782 c 6.54,2.63 13.67,5.79 19.21,10.18 -6.85,4.23 -16.51,7.36 -24.55,5.71 -1.29,-0.26 -1.3,-0.29 -2.38,-0.63 -8.26,-5.68 -15.86997,-4.75 -25.49997,-5.39 17.09997,-3.06 17.64997,0.98 33.21997,-9.87 z"
     id="path112" />
  <path
     fill="#fefefe"
     d="m 874.41743,996.492 a 1322,1322 0 0 1 30.82,-9.95 c -5.89,15.77 -9.64,31.66 -14.19,47.79 -3.63,12.87 -10.25,26.68 -10.26,40.2 -0.02,10.95 12.56,25.18 5.68,34.72 3.73,0.67 7.23,1.49 11.02,0.96 l 1.8,-2.65 0.5,-3.41 c 3.42,2.63 7.56,5.49 9.88,9.14 -1.35,-0.14 -2.67,-0.26 -4.03,-0.3 l 0.15,1.57 c 2.86,2.35 5.44,4.47 7.69,7.43 l 2.32,-0.63 c 10.14,1.55 21.15,0.76 31.46,0.85 17.27,0.15 34.43,0.54 51.66,1.66 1.30997,-0.37 2.26997,-0.49 3.62997,-0.33 3.39,0.38 5.35,0.36 8.68,-0.5 1.08,0.34 1.09,0.37 2.38,0.63 8.04,1.65 17.7,-1.48 24.55,-5.71 l 0.36,2.74 c 0.7,0.51 1.39,1.2 2.23,1.42 9.04,-2.67 24.7,-3.58 33.54,-0.05 5.72,1.14 15.69,0.75 19.76,5.1 -35.98,3.26 -49.24,6.67 -81.3,23.31 -25.52997,-16.54 -65.25997,-14.78 -94.87997,-19.64 -3.27,8.92 -7.61,17.21 -16.83,21.19 -7.98,3.45 -17.38,2.2 -25.2,-1.05 a 78.4385,78.4385 0 0 1 -3.9,-1.77 c -11.477,11.89 -24.406,22.18 -36.765,33.13 l -64.463,57.97 c -10.109,8.99 -20.948,17.27 -30.741,26.58 5.409,6.96 11.108,13.08 17.88,18.74 l -4.407,0.93 c -17.227,-14.3 -30.772,-33.51 -36.981,-55.11 -12.522,-43.58 2.131,-88.3 23.245,-126.43 22.081,-39.87 56.191,-69.74 94.827,-93.07 11.252,-6.8 23.123,-13.71 35.825,-17.36 z"
     id="path113" />
  <path
     fill="#393840"
     d="m 753.44143,1286.562 c -17.227,-14.3 -30.772,-33.51 -36.981,-55.11 -12.522,-43.58 2.131,-88.3 23.245,-126.43 22.081,-39.87 56.191,-69.74 94.827,-93.07 11.252,-6.8 23.123,-13.71 35.825,-17.36 l 4.06,1.9 c -62.548,24.21 -116.23,72.81 -143.274,134.32 -14.681,33.4 -20.758,73.7 -7.099,108.54 3.597,9.17 8.551,17.57 14.532,25.39 28.89,-24.13 56.428,-49.42 84.509,-74.46 15.474,-13.79 33.327,-26.88 46.592,-42.84 -4.81,-6.68 -7.922,-11.79 -6.641,-20.45 0.811,-5.46 3.541,-9.83 8.011,-13.06 3.28,-2.37 6.47,-3.66 10.47,-4.15 l 4.95,-0.53 c 3.73,0.67 7.23,1.49 11.02,0.96 l 1.8,-2.65 0.5,-3.41 c 3.42,2.63 7.56,5.49 9.88,9.14 -1.35,-0.14 -2.67,-0.26 -4.03,-0.3 l 0.15,1.57 c 2.86,2.35 5.44,4.47 7.69,7.43 l 2.32,-0.63 c 10.14,1.55 21.15,0.76 31.46,0.85 17.27,0.15 34.43,0.54 51.66,1.66 1.30997,-0.37 2.26997,-0.49 3.62997,-0.33 3.39,0.38 5.35,0.36 8.68,-0.5 1.08,0.34 1.09,0.37 2.38,0.63 8.04,1.65 17.7,-1.48 24.55,-5.71 l 0.36,2.74 c 0.7,0.51 1.39,1.2 2.23,1.42 9.04,-2.67 24.7,-3.58 33.54,-0.05 5.72,1.14 15.69,0.75 19.76,5.1 -35.98,3.26 -49.24,6.67 -81.3,23.31 -25.52997,-16.54 -65.25997,-14.78 -94.87997,-19.64 -3.27,8.92 -7.61,17.21 -16.83,21.19 -7.98,3.45 -17.38,2.2 -25.2,-1.05 a 78.4385,78.4385 0 0 1 -3.9,-1.77 c -11.477,11.89 -24.406,22.18 -36.765,33.13 l -64.463,57.97 c -10.109,8.99 -20.948,17.27 -30.741,26.58 5.409,6.96 11.108,13.08 17.88,18.74 z"
     id="path114" />
  <path
     fill="#494853"
     d="m 899.28743,1107.562 c 1.85,2.42 2.86,4.36 3.97,7.2 2.55,4.38 2.8,9.68 1.42,14.55 -1.53,5.41 -5.88,8.97 -10.75,11.39 -5.33,2.65 -11.46,3.42 -17.14,1.4 -3.08,-1.08 -6.1,-3.13 -7.63,-6.09 -2.03,-3.92 -0.67,-8.13 1.04,-11.85 1.63,-3.52 3.62,-6.03 6.35,-8.75 a 130.81,130.81 0 0 1 5.32,-4.22 l -0.35,-1.41 4.95,-0.53 c 3.73,0.67 7.23,1.49 11.02,0.96 z"
     id="path115" />
  <path
     fill="#fefefe"
     d="m 883.87743,1116.192 c 2.4,-0.64 4.53,-1.48 6.85,-0.07 1.56,0.93 3.01,2.59 4.32,3.86 -2.13,4.49 -4.5,8.68 -9.55,10.28 -2.64,0.84 -4.48,0.55 -6.94,-0.67 -0.83,-1.45 -1.5,-1.97 -1.32,-3.73 0.43,-4.28 3.66,-6.96 6.64,-9.67 z"
     id="path116" />
  <path
     fill="#fefefe"
     d="m 1038.1574,1117.962 0.36,2.74 c 0.7,0.51 1.39,1.2 2.23,1.42 9.04,-2.67 24.7,-3.58 33.54,-0.05 -24.45,-0.61 -40.48,8.38 -62.02,18.23 -5.65,-3.61 -10.79,-6.81 -17.28997,-8.75 -14.85,-4.42 -76.19,-3.6 -81.76,-7.68 l 0.26,-1.88 2.32,-0.63 c 10.14,1.55 21.15,0.76 31.46,0.85 17.27,0.15 34.43,0.54 51.66,1.66 1.30997,-0.37 2.26997,-0.49 3.62997,-0.33 3.39,0.38 5.35,0.36 8.68,-0.5 1.08,0.34 1.09,0.37 2.38,0.63 8.04,1.65 17.7,-1.48 24.55,-5.71 z"
     id="path117" />
  <path
     fill="#494853"
     d="m 1038.1574,1117.962 0.36,2.74 c 0.7,0.51 1.39,1.2 2.23,1.42 -11.6,6.33 -20.46,7.75 -33.44,4.07 l -8.38997,-2.32 c 1.30997,-0.37 2.26997,-0.49 3.62997,-0.33 3.39,0.38 5.35,0.36 8.68,-0.5 1.08,0.34 1.09,0.37 2.38,0.63 8.04,1.65 17.7,-1.48 24.55,-5.71 z"
     id="path118" />
  <path
     fill="#fefefe"
     d="m 1107.9474,1127.112 c 0.8,8.19 -4.07,19.33 -6.52,27.09 a 258.979,258.979 0 0 1 -69.09,96.65 c -4.47,3.86 -23.59,17.33 -25.72,20.58 l -0.46,4.63 c -19.09997,12.6 -54.80997,33.31 -77.33997,35.86 -1.36,-0.97 -1.82,-1.01 -3.56,-1.04 -2.01,-0.03 -3.72,-0.17 -5.7,-0.43 -7.21,1.14 -35.19,4.54 -39.49,6.51 -44.559,2.09 -85.546,-4.39 -122.219,-31.33 -6.772,-5.66 -12.471,-11.78 -17.88,-18.74 9.793,-9.31 20.632,-17.59 30.741,-26.58 l 64.463,-57.97 c 12.359,-10.95 25.288,-21.24 36.765,-33.13 a 78.4385,78.4385 0 0 0 3.9,1.77 c 7.82,3.25 17.22,4.5 25.2,1.05 9.22,-3.98 13.56,-12.27 16.83,-21.19 29.62,4.86 69.35,3.1 94.87997,19.64 32.06,-16.64 45.32,-20.05 81.3,-23.31 a 1324.26,1324.26 0 0 0 13.9,-0.06 z"
     id="path119" />
  <path
     fill="#393840"
     d="m 919.55743,1310.452 c 31.34,-9.5 58.92,-22.33 87.05997,-39.02 l -0.46,4.63 c -19.09997,12.6 -54.80997,33.31 -77.33997,35.86 -1.36,-0.97 -1.82,-1.01 -3.56,-1.04 -2.01,-0.03 -3.72,-0.17 -5.7,-0.43 z"
     id="path120" />
</svg>
